<?xml version="1.0" encoding="UTF-8"?>
<svg xmlns="http://www.w3.org/2000/svg" xmlns:xlink="http://www.w3.org/1999/xlink" width="514.5pt" height="559.18pt" viewBox="0 0 514.5 559.18" version="1.1">

<g id="surface1">
<path style=" stroke:none;fill-rule:nonzero;fill:rgb(7.798767%,32.899475%,63.09967%);fill-opacity:1;" d="M 252.230469 433.054688 L 258.398438 433.054688 L 258.398438 397.785156 C 235.597656 385.472656 218.960938 374.070313 218.960938 363.121094 C 218.960938 363.121094 219.386719 336.21875 219.386719 325.273438 C 219.386719 314.332031 232.15625 303.386719 246.292969 303.386719 L 264.078125 303.386719 L 252.691406 303.386719 L 270.472656 303.386719 C 284.609375 303.386719 297.378906 314.332031 297.378906 325.273438 L 297.378906 354.007813 L 259.984375 354.007813 L 259.984375 333.484375 L 254.96875 333.484375 L 254.96875 357.652344 C 277.769531 369.964844 294.410156 381.367188 294.410156 392.3125 L 294.410156 447.949219 C 294.410156 455.246094 283.917969 462.085938 275.253906 462.085938 L 236.269531 462.085938 C 227.605469 462.085938 217.117188 455.246094 217.117188 447.949219 L 217.117188 403.257813 L 252.230469 403.257813 "/>
<path style=" stroke:none;fill-rule:nonzero;fill:rgb(7.798767%,32.899475%,63.09967%);fill-opacity:1;" d="M 145.460938 302.40625 L 109.316406 302.40625 L 109.316406 425.367188 C 109.316406 431.828125 107.914063 431.828125 107.238281 431.828125 C 106.5625 431.828125 105.15625 431.828125 105.15625 425.367188 L 105.15625 302.40625 L 67.484375 302.40625 L 67.484375 441.800781 C 67.484375 458.589844 79.234375 463.066406 86.179688 463.066406 L 128.292969 463.066406 C 135.238281 463.066406 146.996094 458.589844 146.996094 441.800781 L 146.996094 302.40625 "/>
<path style=" stroke:none;fill-rule:nonzero;fill:rgb(100%,82.699585%,0%);fill-opacity:1;" d="M 128.292969 458.015625 L 86.183594 458.015625 C 84.785156 458.015625 72.527344 457.566406 72.527344 441.800781 L 72.527344 307.457031 L 100.113281 307.457031 L 100.113281 425.367188 C 100.113281 428.214844 100.113281 436.882813 107.238281 436.882813 C 114.367188 436.882813 114.367188 428.214844 114.367188 425.367188 L 114.367188 307.457031 L 141.945313 307.457031 L 141.945313 441.800781 C 141.945313 457.566406 129.695313 458.015625 128.292969 458.015625 "/>
<g clip-path="url(#clip1)" clip-rule="nonzero">
<path style=" stroke:none;fill-rule:nonzero;fill:rgb(7.798767%,32.899475%,63.09967%);fill-opacity:1;" d="M 338.058594 530.867188 C 319.605469 530.867188 301.949219 527.480469 285.65625 521.316406 C 326.597656 489.007813 352.882813 438.941406 352.882813 382.734375 C 352.882813 326.53125 326.597656 276.464844 285.65625 244.15625 C 301.949219 237.992188 319.605469 234.609375 338.058594 234.609375 C 419.867188 234.609375 486.1875 300.925781 486.1875 382.734375 C 486.1875 464.546875 419.867188 530.867188 338.058594 530.867188 M 324.570313 382.734375 C 324.570313 434.730469 297.777344 480.460938 257.246094 506.890625 C 216.71875 480.460938 189.929688 434.730469 189.929688 382.734375 C 189.929688 330.742188 216.71875 285.011719 257.246094 258.582031 C 297.777344 285.011719 324.570313 330.742188 324.570313 382.734375 M 176.441406 530.867188 C 94.632813 530.867188 28.3125 464.546875 28.3125 382.734375 C 28.3125 300.925781 94.632813 234.609375 176.441406 234.609375 C 194.890625 234.609375 212.550781 237.992188 228.84375 244.15625 C 187.898438 276.464844 161.613281 326.53125 161.613281 382.734375 C 161.613281 438.941406 187.898438 489.007813 228.84375 521.316406 C 212.550781 527.480469 194.890625 530.867188 176.441406 530.867188 M 338.058594 206.296875 C 308.933594 206.296875 281.460938 213.355469 257.246094 225.851563 C 233.039063 213.355469 205.566406 206.296875 176.441406 206.296875 C 78.996094 206.296875 0 285.289063 0 382.734375 C 0 480.179688 78.996094 559.179688 176.441406 559.179688 C 205.566406 559.179688 233.039063 552.117188 257.246094 539.617188 C 281.460938 552.117188 308.933594 559.179688 338.058594 559.179688 C 435.503906 559.179688 514.496094 480.179688 514.496094 382.734375 C 514.496094 285.289063 435.503906 206.296875 338.058594 206.296875 "/>
</g>
<path style=" stroke:none;fill-rule:nonzero;fill:rgb(100%,82.699585%,0%);fill-opacity:1;" d="M 338.058594 536.941406 C 253.027344 536.941406 183.847656 467.765625 183.847656 382.734375 C 183.847656 297.707031 253.027344 228.527344 338.058594 228.527344 C 423.085938 228.527344 492.261719 297.707031 492.261719 382.734375 C 492.261719 467.765625 423.085938 536.941406 338.058594 536.941406 M 338.058594 212.371094 C 244.117188 212.371094 167.691406 288.800781 167.691406 382.734375 C 167.691406 476.675781 244.117188 553.101563 338.058594 553.101563 C 431.996094 553.101563 508.421875 476.675781 508.421875 382.734375 C 508.421875 288.800781 431.996094 212.371094 338.058594 212.371094 "/>
<path style=" stroke:none;fill-rule:nonzero;fill:rgb(7.798767%,32.899475%,63.09967%);fill-opacity:1;" d="M 367.089844 124.167969 C 357.042969 119.136719 346.449219 114.648438 335.550781 110.816406 C 337.183594 106.800781 338.113281 102.421875 338.308594 97.75 C 347.175781 97.925781 361.632813 99.777344 365.988281 109.742188 C 367.464844 113.113281 368.195313 116.03125 368.195313 118.75 C 368.195313 120.621094 367.777344 122.398438 367.089844 124.167969 M 277.179688 99.820313 C 276.15625 95.15625 273.761719 88.566406 270.339844 82.40625 C 269.402344 80.722656 268.546875 78.496094 267.777344 76.074219 C 274.777344 79.285156 285.273438 83.9375 292.070313 86.207031 C 295.757813 87.433594 302.390625 90.53125 305.40625 97.484375 C 306.394531 99.761719 306.894531 102.257813 306.917969 104.941406 C 297.5625 102.683594 287.597656 100.878906 277.179688 99.820313 M 244.152344 82.40625 C 240.734375 88.566406 238.339844 95.15625 237.3125 99.820313 C 226.894531 100.878906 216.933594 102.683594 207.578125 104.941406 C 207.601563 102.257813 208.097656 99.761719 209.089844 97.484375 C 212.105469 90.53125 218.738281 87.433594 222.421875 86.207031 C 229.222656 83.9375 239.71875 79.285156 246.71875 76.074219 C 245.945313 78.496094 245.09375 80.722656 244.152344 82.40625 M 147.40625 124.167969 C 146.722656 122.398438 146.296875 120.621094 146.296875 118.75 C 146.296875 116.03125 147.03125 113.113281 148.507813 109.742188 C 152.863281 99.777344 167.320313 97.925781 176.1875 97.75 C 176.382813 102.421875 177.3125 106.800781 178.945313 110.816406 C 168.042969 114.648438 157.449219 119.136719 147.40625 124.167969 M 332.925781 80.054688 C 323.261719 69.835938 305.066406 65.386719 293.761719 62.632813 C 291.058594 61.972656 288.726563 61.402344 287.050781 60.886719 C 281.128906 59.0625 276.402344 55.199219 273.320313 52.066406 C 273.472656 51.199219 273.566406 50.320313 273.566406 49.417969 C 273.566406 42.796875 269.371094 36.96875 263.554688 34.441406 L 264.097656 29 L 272.789063 32.351563 L 278.296875 34.472656 L 278.296875 9.765625 L 272.757813 11.960938 L 265.804688 14.710938 L 268.539063 5.160156 L 270.019531 -0.00390625 L 244.476563 -0.00390625 L 245.957031 5.160156 L 248.691406 14.710938 L 241.738281 11.960938 L 236.199219 9.765625 L 236.199219 34.472656 L 241.703125 32.351563 L 250.398438 29 L 250.933594 34.398438 C 245.066406 36.871094 240.921875 42.660156 240.921875 49.417969 C 240.921875 50.324219 241.015625 51.210938 241.160156 52.082031 C 238.078125 55.210938 233.359375 59.066406 227.445313 60.886719 C 225.769531 61.402344 223.4375 61.972656 220.734375 62.632813 C 209.429688 65.386719 191.234375 69.835938 181.570313 80.054688 C 155.984375 80.839844 129.8125 92.609375 129.8125 113.796875 C 129.8125 128.367188 147.605469 143.285156 159.585938 151.675781 L 162.09375 156.734375 C 162.09375 156.734375 162.996094 155.867188 164.144531 154.757813 C 166.125 156.046875 167.75 157.042969 168.820313 157.679688 C 167.835938 161.347656 165.652344 170.21875 166.53125 174.152344 L 166.683594 174.882813 C 168.632813 184.039063 173.761719 208.335938 257.246094 208.460938 C 340.734375 208.335938 345.859375 184.039063 347.808594 174.882813 L 347.964844 174.152344 C 348.839844 170.21875 346.660156 161.347656 345.675781 157.679688 C 346.742188 157.042969 348.367188 156.046875 350.351563 154.757813 C 351.5 155.867188 352.398438 156.734375 352.398438 156.734375 L 354.914063 151.675781 C 366.890625 143.285156 384.679688 128.367188 384.679688 113.796875 C 384.679688 92.609375 358.511719 80.839844 332.925781 80.054688 "/>
<path style=" stroke:none;fill-rule:nonzero;fill:rgb(100%,82.699585%,0%);fill-opacity:1;" d="M 236.007813 184.03125 C 234.019531 184.121094 232.070313 184.21875 230.179688 184.328125 L 230.179688 201.824219 C 232.070313 201.976563 234.019531 202.113281 236.007813 202.238281 "/>
<path style=" stroke:none;fill-rule:nonzero;fill:rgb(100%,82.699585%,0%);fill-opacity:1;" d="M 243.886719 183.761719 C 242.976563 183.789063 242.035156 183.804688 241.140625 183.835938 L 241.140625 202.5 C 242.035156 202.539063 242.976563 202.5625 243.886719 202.597656 "/>
<path style=" stroke:none;fill-rule:nonzero;fill:rgb(100%,82.699585%,0%);fill-opacity:1;" d="M 250.394531 183.625 C 249.246094 183.644531 248.09375 183.660156 246.964844 183.6875 L 246.964844 202.699219 C 248.09375 202.734375 249.246094 202.757813 250.394531 202.785156 "/>
<path style=" stroke:none;fill-rule:nonzero;fill:rgb(100%,82.699585%,0%);fill-opacity:1;" d="M 270.953125 183.75 C 266.628906 183.628906 262.117188 183.558594 257.359375 183.554688 C 256.269531 183.554688 255.222656 183.570313 254.160156 183.578125 L 254.160156 202.847656 C 255.238281 202.855469 256.300781 202.875 257.40625 202.878906 C 262.128906 202.871094 266.628906 202.78125 270.953125 202.621094 "/>
<path style=" stroke:none;fill-rule:nonzero;fill:rgb(100%,82.699585%,0%);fill-opacity:1;" d="M 279.289063 184.050781 C 277.355469 183.964844 275.378906 183.882813 273.347656 183.816406 L 273.347656 202.53125 C 275.375 202.441406 277.355469 202.335938 279.289063 202.214844 "/>
<path style=" stroke:none;fill-rule:nonzero;fill:rgb(100%,82.699585%,0%);fill-opacity:1;" d="M 287.050781 184.492188 C 286.175781 184.4375 285.324219 184.375 284.429688 184.324219 L 284.429688 201.835938 C 285.324219 201.761719 286.175781 201.671875 287.050781 201.589844 "/>
<path style=" stroke:none;fill-rule:nonzero;fill:rgb(100%,82.699585%,0%);fill-opacity:1;" d="M 290.136719 184.691406 L 290.136719 201.300781 C 292.011719 201.101563 293.84375 200.882813 295.613281 200.648438 L 295.613281 185.128906 C 293.84375 184.972656 292.015625 184.824219 290.136719 184.691406 "/>
<path style=" stroke:none;fill-rule:nonzero;fill:rgb(100%,82.699585%,0%);fill-opacity:1;" d="M 172.226563 160.738281 C 183.621094 157.300781 211.789063 150.550781 257.246094 150.523438 C 302.710938 150.550781 330.875 157.300781 342.269531 160.738281 C 342.0625 159.894531 341.855469 159.082031 341.652344 158.339844 C 334.132813 155.949219 307.550781 148.84375 257.246094 148.816406 C 206.945313 148.84375 180.363281 155.949219 172.84375 158.339844 C 172.640625 159.082031 172.433594 159.894531 172.226563 160.738281 "/>
<path style=" stroke:none;fill-rule:nonzero;fill:rgb(100%,82.699585%,0%);fill-opacity:1;" d="M 142.699219 115.460938 C 142.699219 113.945313 143.777344 110.988281 144.859375 108.515625 C 149.714844 97.410156 164.605469 95.027344 174.285156 94.699219 C 174.488281 90.773438 175.605469 87.316406 177.460938 84.289063 C 157.261719 85.6875 137.542969 94.050781 133.695313 108.5625 C 133.257813 110.226563 133.023438 111.972656 133.023438 113.796875 C 133.023438 116.078125 133.589844 118.398438 134.539063 120.714844 C 136.613281 127.242188 141.726563 134.117188 152.59375 141.765625 L 157.089844 138.613281 C 157.089844 138.613281 142.835938 133.699219 142.699219 115.460938 "/>
<path style=" stroke:none;fill-rule:nonzero;fill:rgb(100%,82.699585%,0%);fill-opacity:1;" d="M 187.449219 142.777344 L 198.875 137.210938 L 196.460938 149.289063 L 208.605469 147.496094 L 202.808594 136.628906 L 215.355469 138.664063 C 215.355469 138.664063 214.890625 135.496094 214.527344 133.035156 C 214.164063 130.578125 213.699219 127.40625 213.699219 127.40625 L 202.269531 132.976563 L 202.816406 130.242188 L 204.683594 120.902344 L 192.539063 122.6875 L 198.339844 133.558594 L 185.792969 131.527344 "/>
<path style=" stroke:none;fill-rule:nonzero;fill:rgb(100%,82.699585%,0%);fill-opacity:1;" d="M 171.742188 146.714844 L 180.890625 145.304688 C 180.890625 145.304688 179.855469 143.214844 179.046875 141.597656 C 178.246094 139.980469 177.210938 137.890625 177.210938 137.890625 L 170.554688 144.3125 L 170.316406 142.292969 L 169.511719 135.410156 L 161.503906 139.378906 L 167.960938 145.597656 L 158.820313 147.011719 L 162.496094 154.425781 L 169.152344 148 L 170.195313 156.90625 L 178.199219 152.9375 "/>
<path style=" stroke:none;fill-rule:nonzero;fill:rgb(100%,82.699585%,0%);fill-opacity:1;" d="M 189.800781 121.601563 C 189.671875 121.351563 189.589844 121.199219 189.589844 121.199219 L 201.964844 119.378906 C 200.488281 114.203125 199.109375 107.964844 199.109375 105.066406 C 199.109375 101.179688 199.855469 97.496094 201.324219 94.113281 C 205.652344 84.148438 214.71875 79.851563 219.746094 78.179688 C 226.121094 76.050781 241.175781 68.734375 249.316406 64.9375 L 248.816406 63.15625 C 246.1875 61.46875 244.070313 59.058594 242.746094 56.210938 C 239.355469 59.402344 234.582031 62.933594 228.636719 64.757813 C 226.84375 65.3125 224.457031 65.890625 221.695313 66.566406 C 206.804688 70.199219 179.09375 76.953125 179.09375 95.910156 C 179.09375 108.609375 184.746094 116.796875 189.800781 121.601563 "/>
<path style=" stroke:none;fill-rule:nonzero;fill:rgb(100%,82.699585%,0%);fill-opacity:1;" d="M 248.839844 68.140625 C 240.394531 72.109375 226.6875 78.710938 220.601563 80.738281 C 216.003906 82.269531 207.710938 86.183594 203.800781 95.1875 C 202.480469 98.230469 201.8125 101.554688 201.8125 105.066406 C 201.8125 107.785156 203.21875 113.976563 204.664063 118.976563 L 206.527344 118.703125 C 203 110.019531 202.566406 102.332031 205.367188 95.871094 C 209.015625 87.476563 216.816406 83.804688 221.140625 82.363281 C 228.800781 79.8125 241.683594 73.953125 248.175781 70.9375 C 248.414063 69.996094 248.632813 69.058594 248.839844 68.140625 "/>
<path style=" stroke:none;fill-rule:nonzero;fill:rgb(100%,82.699585%,0%);fill-opacity:1;" d="M 240.800781 103.957031 C 240.8125 106.125 245.398438 116.398438 250.648438 122.457031 L 248.558594 116.613281 C 245.332031 111.597656 242.726563 105.902344 242.519531 104.113281 L 242.507813 104.035156 L 242.507813 103.957031 C 242.507813 101.210938 244.890625 92.949219 249.195313 85.207031 C 251.136719 81.710938 252.980469 76.039063 254.671875 68.351563 L 254.9375 67.132813 L 256.175781 67.304688 L 257.25 67.445313 L 258.320313 67.304688 L 259.558594 67.132813 L 259.824219 68.351563 C 261.515625 76.039063 263.359375 81.710938 265.300781 85.207031 C 269.605469 92.949219 271.988281 101.210938 271.988281 103.957031 L 271.988281 104.035156 L 271.976563 104.113281 C 271.769531 105.902344 269.164063 111.597656 265.9375 116.613281 L 263.847656 122.457031 C 269.097656 116.398438 273.683594 106.125 273.695313 103.957031 C 273.695313 100.953125 271.300781 92.476563 266.796875 84.371094 C 264.144531 79.59375 262.128906 71.4375 260.882813 65.242188 C 259.726563 65.535156 258.484375 65.714844 257.25 65.742188 C 256.011719 65.714844 254.765625 65.535156 253.613281 65.242188 C 252.367188 71.4375 250.351563 79.59375 247.699219 84.371094 C 243.195313 92.476563 240.800781 100.953125 240.800781 103.957031 "/>
<path style=" stroke:none;fill-rule:nonzero;fill:rgb(100%,82.699585%,0%);fill-opacity:1;" d="M 240.246094 122.757813 L 240.246094 136.472656 L 254.851563 131.839844 L 249.851563 145.816406 L 264.644531 145.816406 L 259.644531 131.839844 L 274.246094 136.472656 L 274.246094 122.757813 L 259.644531 127.390625 L 264.644531 113.410156 L 249.851563 113.410156 L 254.851563 127.390625 "/>
<path style=" stroke:none;fill-rule:nonzero;fill:rgb(100%,82.699585%,0%);fill-opacity:1;" d="M 176.003906 185.460938 C 176.484375 186.015625 176.988281 186.574219 177.5625 187.132813 C 188.902344 184.125 214.476563 178.988281 257.246094 178.964844 C 300.019531 178.988281 325.59375 184.125 336.933594 187.132813 C 337.503906 186.574219 338.011719 186.015625 338.492188 185.460938 C 325.042969 181.988281 297.503906 176.511719 257.246094 176.492188 C 216.996094 176.511719 189.453125 181.988281 176.003906 185.460938 "/>
<path style=" stroke:none;fill-rule:nonzero;fill:rgb(100%,82.699585%,0%);fill-opacity:1;" d="M 380.800781 108.5625 C 376.953125 94.050781 357.238281 85.6875 337.035156 84.289063 C 338.890625 87.316406 340.007813 90.773438 340.210938 94.699219 C 349.890625 95.027344 364.78125 97.410156 369.636719 108.515625 C 370.71875 110.988281 371.796875 113.945313 371.796875 115.460938 C 371.660156 133.699219 357.40625 138.613281 357.40625 138.613281 L 361.902344 141.765625 C 372.769531 134.117188 377.878906 127.242188 379.957031 120.714844 C 380.910156 118.398438 381.472656 116.078125 381.472656 113.796875 C 381.472656 111.972656 381.238281 110.226563 380.800781 108.5625 "/>
<path style=" stroke:none;fill-rule:nonzero;fill:rgb(100%,82.699585%,0%);fill-opacity:1;" d="M 321.957031 122.6875 L 309.8125 120.902344 L 311.675781 130.242188 L 312.226563 132.976563 L 300.800781 127.40625 C 300.800781 127.40625 300.328125 130.578125 299.972656 133.035156 C 299.605469 135.496094 299.140625 138.664063 299.140625 138.664063 L 311.6875 136.628906 L 305.890625 147.496094 L 318.035156 149.289063 L 315.621094 137.210938 L 327.046875 142.777344 L 328.703125 131.523438 L 316.160156 133.558594 "/>
<path style=" stroke:none;fill-rule:nonzero;fill:rgb(100%,82.699585%,0%);fill-opacity:1;" d="M 352.992188 139.378906 L 344.984375 135.410156 L 344.179688 142.292969 L 343.945313 144.3125 L 337.285156 137.890625 C 337.285156 137.890625 336.246094 139.980469 335.449219 141.597656 C 334.640625 143.214844 333.605469 145.304688 333.605469 145.304688 L 342.753906 146.714844 L 336.296875 152.9375 L 344.300781 156.90625 L 345.34375 148 L 351.996094 154.425781 L 355.679688 147.011719 L 346.535156 145.597656 "/>
<path style=" stroke:none;fill-rule:nonzero;fill:rgb(100%,82.699585%,0%);fill-opacity:1;" d="M 313.175781 94.113281 C 314.640625 97.496094 315.386719 101.179688 315.386719 105.066406 C 315.386719 107.964844 314.003906 114.203125 312.53125 119.378906 L 324.90625 121.199219 C 324.90625 121.199219 324.824219 121.351563 324.691406 121.601563 C 329.75 116.796875 335.402344 108.609375 335.402344 95.910156 C 335.402344 76.953125 307.691406 70.195313 292.800781 66.566406 C 290.039063 65.890625 287.648438 65.3125 285.859375 64.757813 C 279.914063 62.929688 275.136719 59.402344 271.75 56.210938 C 270.425781 59.058594 268.308594 61.46875 265.675781 63.15625 L 265.179688 64.9375 C 273.320313 68.734375 288.371094 76.050781 294.75 78.179688 C 299.773438 79.851563 308.84375 84.148438 313.175781 94.113281 "/>
<path style=" stroke:none;fill-rule:nonzero;fill:rgb(100%,82.699585%,0%);fill-opacity:1;" d="M 309.828125 118.980469 C 311.277344 113.980469 312.683594 107.785156 312.683594 105.066406 C 312.683594 101.554688 312.015625 98.230469 310.695313 95.191406 C 306.785156 86.1875 298.492188 82.273438 293.894531 80.738281 C 287.808594 78.710938 274.101563 72.109375 265.65625 68.140625 C 265.863281 69.0625 266.085938 69.996094 266.320313 70.9375 C 272.8125 73.957031 285.699219 79.8125 293.355469 82.363281 C 297.683594 83.804688 305.480469 87.476563 309.125 95.875 C 311.933594 102.332031 311.496094 110.019531 307.96875 118.703125 "/>
<path style=" stroke:none;fill-rule:nonzero;fill:rgb(100%,82.699585%,0%);fill-opacity:1;" d="M 266.128906 111.113281 C 267.824219 108.039063 269.09375 105.199219 269.277344 103.878906 C 269.238281 101.695313 267.066406 93.945313 262.941406 86.515625 C 260.980469 82.992188 259.140625 77.476563 257.472656 70.160156 L 257.464844 70.199219 L 257.246094 70.167969 L 257.03125 70.199219 L 257.023438 70.160156 C 255.355469 77.476563 253.515625 82.992188 251.554688 86.515625 C 247.425781 93.945313 245.257813 101.695313 245.21875 103.878906 C 245.402344 105.199219 246.671875 108.039063 248.367188 111.113281 L 257.246094 111.113281 "/>
<path style=" stroke:none;fill-rule:nonzero;fill:rgb(100%,82.699585%,0%);fill-opacity:1;" d="M 257.246094 153.226563 C 210.019531 153.253906 181.675781 160.570313 171.519531 163.777344 C 170.691406 167.621094 170.097656 171.53125 170.484375 173.273438 L 170.648438 174.039063 C 171.128906 176.296875 171.847656 179.5625 174.226563 183.132813 C 187.382813 179.644531 215.609375 173.8125 257.246094 173.789063 C 298.882813 173.8125 327.113281 179.644531 340.273438 183.132813 C 342.652344 179.5625 343.367188 176.296875 343.847656 174.039063 L 344.011719 173.273438 C 344.398438 171.53125 343.804688 167.621094 342.976563 163.777344 C 332.820313 160.570313 304.476563 153.253906 257.246094 153.226563 "/>
<path style=" stroke:none;fill-rule:nonzero;fill:rgb(100%,82.699585%,0%);fill-opacity:1;" d="M 257.246094 61.691406 C 250.453125 61.691406 244.972656 56.046875 244.972656 49.417969 C 244.972656 42.789063 250.453125 37.144531 257.246094 37.144531 C 263.953125 37.144531 269.519531 42.789063 269.519531 49.417969 C 269.519531 56.046875 263.953125 61.691406 257.246094 61.691406 "/>
<path style=" stroke:none;fill-rule:nonzero;fill:rgb(7.798767%,32.899475%,63.09967%);fill-opacity:1;" d="M 258.96875 39.320313 C 258.457031 39.222656 257.902344 39.132813 257.304688 39.117188 C 251.691406 39.234375 247.167969 43.855469 247.167969 49.414063 C 247.167969 54.976563 251.691406 59.59375 257.25 59.710938 C 259.011719 59.675781 262.632813 58.914063 263.761719 57.371094 C 264.933594 55.773438 263.40625 54.300781 261.800781 53.726563 C 260.234375 53.167969 258.546875 53.691406 256.90625 53.757813 C 253.539063 53.898438 249.382813 52.96875 249.894531 48.867188 C 250.351563 45.171875 253.316406 41.726563 257.304688 41.820313 C 257.648438 41.824219 258.070313 41.898438 258.460938 41.976563 "/>
<path style=" stroke:none;fill-rule:nonzero;fill:rgb(7.798767%,32.899475%,63.09967%);fill-opacity:1;" d="M 261.207031 103.859375 C 261.207031 106.046875 259.4375 107.816406 257.246094 107.816406 C 255.0625 107.816406 253.289063 106.046875 253.289063 103.859375 C 253.289063 101.671875 255.0625 99.898438 257.246094 99.898438 C 259.4375 99.898438 261.207031 101.671875 261.207031 103.859375 "/>
<path style=" stroke:none;fill-rule:nonzero;fill:rgb(7.798767%,32.899475%,63.09967%);fill-opacity:1;" d="M 261.207031 90.855469 C 261.207031 93.042969 259.4375 94.816406 257.246094 94.816406 C 255.0625 94.816406 253.289063 93.042969 253.289063 90.855469 C 253.289063 88.671875 255.0625 86.898438 257.246094 86.898438 C 259.4375 86.898438 261.207031 88.671875 261.207031 90.855469 "/>
<path style=" stroke:none;fill-rule:nonzero;fill:rgb(7.798767%,32.899475%,63.09967%);fill-opacity:1;" d="M 260.648438 129.585938 C 260.648438 131.464844 259.128906 132.988281 257.246094 132.988281 C 255.367188 132.988281 253.847656 131.464844 253.847656 129.585938 C 253.847656 127.703125 255.367188 126.179688 257.246094 126.179688 C 259.128906 126.179688 260.648438 127.703125 260.648438 129.585938 "/>
<path style=" stroke:none;fill-rule:nonzero;fill:rgb(7.798767%,32.899475%,63.09967%);fill-opacity:1;" d="M 200.046875 132.289063 C 198.503906 132.515625 197.4375 133.953125 197.660156 135.496094 C 197.890625 137.039063 199.324219 138.105469 200.867188 137.878906 C 202.410156 137.652344 203.476563 136.21875 203.25 134.675781 C 203.019531 133.132813 201.585938 132.0625 200.046875 132.289063 "/>
<path style=" stroke:none;fill-rule:nonzero;fill:rgb(7.798767%,32.899475%,63.09967%);fill-opacity:1;" d="M 168.855469 144.335938 C 167.84375 144.839844 167.425781 146.074219 167.925781 147.089844 C 168.433594 148.105469 169.664063 148.519531 170.683594 148.015625 C 171.703125 147.511719 172.113281 146.28125 171.609375 145.265625 C 171.109375 144.25 169.875 143.832031 168.855469 144.335938 "/>
<path style=" stroke:none;fill-rule:nonzero;fill:rgb(7.798767%,32.899475%,63.09967%);fill-opacity:1;" d="M 189.3125 112.507813 C 189.3125 114.320313 190.78125 115.789063 192.59375 115.789063 C 194.402344 115.789063 195.875 114.320313 195.875 112.507813 C 195.875 110.695313 194.402344 109.226563 192.59375 109.226563 C 190.78125 109.226563 189.3125 110.695313 189.3125 112.507813 "/>
<path style=" stroke:none;fill-rule:nonzero;fill:rgb(7.798767%,32.899475%,63.09967%);fill-opacity:1;" d="M 188.992188 95.984375 C 190.804688 95.984375 192.277344 94.515625 192.277344 92.703125 C 192.277344 90.890625 190.804688 89.421875 188.992188 89.421875 C 187.179688 89.421875 185.714844 90.890625 185.714844 92.703125 C 185.714844 94.515625 187.179688 95.984375 188.992188 95.984375 "/>
<path style=" stroke:none;fill-rule:nonzero;fill:rgb(7.798767%,32.899475%,63.09967%);fill-opacity:1;" d="M 200.695313 76.367188 C 198.882813 76.367188 197.410156 77.835938 197.410156 79.648438 C 197.410156 81.460938 198.882813 82.929688 200.695313 82.929688 C 202.507813 82.929688 203.976563 81.460938 203.976563 79.648438 C 203.976563 77.835938 202.507813 76.367188 200.695313 76.367188 "/>
<path style=" stroke:none;fill-rule:nonzero;fill:rgb(7.798767%,32.899475%,63.09967%);fill-opacity:1;" d="M 218.25 75.730469 C 220.0625 75.730469 221.527344 74.257813 221.527344 72.445313 C 221.527344 70.636719 220.0625 69.164063 218.25 69.164063 C 216.4375 69.164063 214.964844 70.636719 214.964844 72.445313 C 214.964844 74.257813 216.4375 75.730469 218.25 75.730469 "/>
<path style=" stroke:none;fill-rule:nonzero;fill:rgb(7.798767%,32.899475%,63.09967%);fill-opacity:1;" d="M 234.902344 63.492188 C 233.113281 63.492188 231.664063 64.941406 231.664063 66.730469 C 231.664063 68.523438 233.113281 69.972656 234.902344 69.972656 C 236.699219 69.972656 238.144531 68.523438 238.144531 66.730469 C 238.144531 64.941406 236.699219 63.492188 234.902344 63.492188 "/>
<path style=" stroke:none;fill-rule:nonzero;fill:rgb(7.798767%,32.899475%,63.09967%);fill-opacity:1;" d="M 174.121094 173.363281 C 177.148438 173.765625 186.242188 174.976563 188.484375 175.277344 C 190.347656 173.980469 197.871094 168.730469 200.378906 166.980469 C 197.347656 166.578125 188.253906 165.367188 186.007813 165.070313 C 184.152344 166.367188 176.625 171.613281 174.121094 173.363281 "/>
<path style=" stroke:none;fill-rule:nonzero;fill:rgb(7.798767%,32.899475%,63.09967%);fill-opacity:1;" d="M 218.996094 159.015625 L 218.441406 158.835938 C 218.441406 158.835938 217.929688 159.117188 217.929688 159.117188 L 208.722656 164.214844 L 205.980469 165.726563 C 205.984375 165.726563 208.964844 166.679688 208.964844 166.679688 L 218.996094 169.890625 L 219.550781 170.070313 L 220.0625 169.789063 L 223.015625 168.15625 L 229.269531 164.695313 L 232.007813 163.179688 C 232.011719 163.179688 229.027344 162.226563 229.027344 162.226563 "/>
<path style=" stroke:none;fill-rule:nonzero;fill:rgb(7.798767%,32.899475%,63.09967%);fill-opacity:1;" d="M 316.835938 135.496094 C 317.0625 133.953125 315.996094 132.515625 314.449219 132.289063 C 312.910156 132.0625 311.472656 133.132813 311.246094 134.675781 C 311.019531 136.21875 312.085938 137.652344 313.628906 137.878906 C 315.171875 138.105469 316.605469 137.039063 316.835938 135.496094 "/>
<path style=" stroke:none;fill-rule:nonzero;fill:rgb(7.798767%,32.899475%,63.09967%);fill-opacity:1;" d="M 345.640625 144.335938 C 344.621094 143.832031 343.386719 144.25 342.886719 145.265625 C 342.378906 146.28125 342.792969 147.511719 343.8125 148.015625 C 344.828125 148.519531 346.0625 148.105469 346.566406 147.089844 C 347.070313 146.074219 346.65625 144.839844 345.640625 144.335938 "/>
<path style=" stroke:none;fill-rule:nonzero;fill:rgb(7.798767%,32.899475%,63.09967%);fill-opacity:1;" d="M 321.90625 115.789063 C 323.71875 115.789063 325.183594 114.320313 325.183594 112.507813 C 325.183594 110.695313 323.71875 109.226563 321.90625 109.226563 C 320.09375 109.226563 318.621094 110.695313 318.621094 112.507813 C 318.621094 114.320313 320.09375 115.789063 321.90625 115.789063 "/>
<path style=" stroke:none;fill-rule:nonzero;fill:rgb(7.798767%,32.899475%,63.09967%);fill-opacity:1;" d="M 325.503906 95.984375 C 327.316406 95.984375 328.78125 94.515625 328.78125 92.703125 C 328.78125 90.890625 327.316406 89.421875 325.503906 89.421875 C 323.691406 89.421875 322.222656 90.890625 322.222656 92.703125 C 322.222656 94.515625 323.691406 95.984375 325.503906 95.984375 "/>
<path style=" stroke:none;fill-rule:nonzero;fill:rgb(7.798767%,32.899475%,63.09967%);fill-opacity:1;" d="M 313.800781 82.929688 C 315.613281 82.929688 317.085938 81.460938 317.085938 79.648438 C 317.085938 77.839844 315.613281 76.367188 313.800781 76.367188 C 311.988281 76.367188 310.519531 77.839844 310.519531 79.648438 C 310.519531 81.460938 311.988281 82.929688 313.800781 82.929688 "/>
<path style=" stroke:none;fill-rule:nonzero;fill:rgb(7.798767%,32.899475%,63.09967%);fill-opacity:1;" d="M 296.246094 75.730469 C 298.0625 75.730469 299.53125 74.257813 299.53125 72.445313 C 299.53125 70.636719 298.0625 69.164063 296.246094 69.164063 C 294.433594 69.164063 292.964844 70.636719 292.964844 72.445313 C 292.964844 74.257813 294.433594 75.730469 296.246094 75.730469 "/>
<path style=" stroke:none;fill-rule:nonzero;fill:rgb(7.798767%,32.899475%,63.09967%);fill-opacity:1;" d="M 279.59375 63.492188 C 277.796875 63.492188 276.351563 64.941406 276.351563 66.730469 C 276.351563 68.523438 277.796875 69.972656 279.59375 69.972656 C 281.382813 69.972656 282.832031 68.523438 282.832031 66.730469 C 282.832031 64.941406 281.382813 63.492188 279.59375 63.492188 "/>
<path style=" stroke:none;fill-rule:nonzero;fill:rgb(7.798767%,32.899475%,63.09967%);fill-opacity:1;" d="M 257.246094 157.070313 C 254.613281 158.089844 243.949219 162.238281 240.398438 163.621094 C 243.949219 165 254.613281 169.144531 257.246094 170.167969 C 257.246094 170.167969 257.246094 170.167969 257.25 170.167969 C 259.878906 169.144531 270.546875 165 274.097656 163.621094 C 270.546875 162.238281 259.878906 158.089844 257.25 157.070313 C 257.246094 157.070313 257.246094 157.070313 257.246094 157.070313 "/>
<path style=" stroke:none;fill-rule:nonzero;fill:rgb(7.798767%,32.899475%,63.09967%);fill-opacity:1;" d="M 314.121094 166.984375 C 316.625 168.730469 324.148438 173.980469 326.011719 175.277344 C 328.253906 174.976563 337.347656 173.765625 340.375 173.363281 C 337.871094 171.613281 330.347656 166.367188 328.488281 165.070313 C 326.238281 165.367188 317.144531 166.578125 314.121094 166.984375 "/>
<path style=" stroke:none;fill-rule:nonzero;fill:rgb(7.798767%,32.899475%,63.09967%);fill-opacity:1;" d="M 296.566406 159.117188 C 296.566406 159.117188 296.054688 158.835938 296.054688 158.835938 L 295.5 159.015625 L 285.46875 162.226563 C 285.46875 162.226563 282.488281 163.179688 282.488281 163.179688 L 285.226563 164.695313 L 291.484375 168.15625 L 294.433594 169.789063 L 294.945313 170.070313 L 295.503906 169.890625 L 305.53125 166.679688 C 305.53125 166.679688 308.507813 165.726563 308.511719 165.726563 L 305.777344 164.214844 "/>
<path style=" stroke:none;fill-rule:nonzero;fill:rgb(100%,82.699585%,0%);fill-opacity:1;" d="M 212.765625 165.0625 L 219.265625 167.144531 L 221.703125 165.792969 L 225.226563 163.847656 L 218.726563 161.761719 "/>
<path style=" stroke:none;fill-rule:nonzero;fill:rgb(100%,82.699585%,0%);fill-opacity:1;" d="M 301.734375 165.0625 L 295.234375 167.144531 L 292.792969 165.792969 L 289.273438 163.847656 L 295.773438 161.761719 "/>
<path style=" stroke:none;fill-rule:nonzero;fill:rgb(100%,82.699585%,0%);fill-opacity:1;" d="M 263.070313 24.265625 L 274.246094 28.570313 L 274.246094 15.722656 L 263.472656 19.992188 L 259.644531 21.507813 L 260.777344 17.550781 L 264.644531 4.046875 L 249.851563 4.046875 L 253.71875 17.550781 L 254.851563 21.507813 L 251.023438 19.992188 L 240.246094 15.722656 L 240.246094 28.570313 L 251.425781 24.265625 L 253.902344 23.308594 L 254.894531 33.285156 C 255.664063 33.171875 256.445313 33.09375 257.25 33.09375 C 258.046875 33.09375 258.828125 33.175781 259.601563 33.296875 L 260.589844 23.308594 "/>
<path style=" stroke:none;fill-rule:nonzero;fill:rgb(7.798767%,32.899475%,63.09967%);fill-opacity:1;" d="M 415.679688 429.6875 C 415.679688 432.859375 414.074219 434.601563 413.542969 434.601563 C 413.011719 434.601563 411.402344 432.859375 411.402344 429.6875 L 411.402344 413.035156 L 415.679688 413.035156 Z M 424.640625 298.25 L 402.632813 298.25 C 395.296875 298.25 387.414063 300.933594 381.007813 305.617188 C 374.117188 310.660156 370.164063 317.152344 370.164063 323.433594 L 370.160156 446.101563 C 370.160156 455.757813 382.441406 463.53125 392.609375 463.53125 L 419.46875 463.53125 C 423.324219 463.53125 426.410156 461.363281 428.65625 458.9375 C 428.910156 459.324219 429.199219 459.710938 429.523438 460.09375 C 433.207031 464.503906 439.976563 466.878906 449.644531 467.164063 L 454.839844 467.316406 L 454.839844 379.484375 L 411.402344 379.484375 L 411.402344 334.929688 L 415.679688 334.929688 L 415.679688 368.679688 L 454.839844 368.679688 L 454.839844 323.429688 C 454.839844 310.484375 440.164063 298.25 424.640625 298.25 "/>
<path style=" stroke:none;fill-rule:nonzero;fill:rgb(100%,82.699585%,0%);fill-opacity:1;" d="M 420.730469 429.6875 C 420.730469 435.195313 417.515625 439.652344 413.542969 439.652344 C 409.570313 439.652344 406.351563 435.195313 406.351563 429.6875 L 406.351563 329.878906 L 420.730469 329.878906 L 420.730469 363.628906 L 449.792969 363.628906 L 449.792969 323.429688 C 449.792969 313.269531 437.335938 303.296875 424.640625 303.296875 L 402.632813 303.296875 C 389.480469 303.296875 375.214844 313.644531 375.214844 323.433594 L 375.214844 446.101563 C 375.214844 452.003906 384.316406 458.480469 392.609375 458.480469 L 419.46875 458.480469 C 423.757813 458.480469 427.339844 452.644531 428.355469 450.398438 L 431.6875 451.445313 C 431.664063 451.5625 431.210938 454.242188 433.394531 456.855469 C 435.3125 459.144531 439.773438 461.820313 449.792969 462.113281 L 449.792969 384.535156 L 411.835938 384.535156 L 411.835938 407.984375 L 420.730469 407.984375 "/>
</g>
</svg>
