<?xml version="1.0" encoding="utf-8"?>
<!-- Generator: Adobe Illustrator 21.0.0, SVG Export Plug-In . SVG Version: 6.00 Build 0)  -->
<svg version="1.1" id="Layer_1" xmlns="http://www.w3.org/2000/svg" xmlns:xlink="http://www.w3.org/1999/xlink" x="0px" y="0px"
	 viewBox="0 0 234 274" style="enable-background:new 0 0 234 274;" xml:space="preserve" width="2500" height="1677">
<style type="text/css">
	.st0{fill:none;}
	.st1{fill:#FFFFFF;}
	.st2{clip-path:url(#SVGID_2_);}
	.st3{fill:#231F20;}
	.st4{clip-path:url(#SVGID_2_);fill:#999999;}
	.st5{fill:#666666;}
	.st6{fill:#161413;}
	.st7{fill:#FFC905;}
	.st8{fill:#D71822;}
	.st9{fill:#999999;}
	.st10{fill:#FFC905;stroke:#FFC905;stroke-width:0.7965;stroke-linejoin:round;}
</style>
<rect x="-229.3" y="-285" class="st0" width="715.8" height="873"/>
<path class="st1" d="M-229.3,230.1c0-197.3,160.6-357.8,357.9-357.8c197.3,0,357.9,160.5,357.9,357.8
	c0,197.3-160.6,357.9-357.9,357.9C-68.8,588-229.3,427.5-229.3,230.1z"/>
<rect x="-144.2" y="-42.7" class="st0" width="546.1" height="546.2"/>
<g id="Group55">
	<path class="st1" d="M401.8,230.3c0,150.9-122.2,273.2-273,273.2c-150.8,0-273-122.2-273-273.2c0-150.8,122.2-273,273-273
		C279.6-42.7,401.8,79.5,401.8,230.3z"/>
	<g id="Group54">
		<defs>
			<rect id="SVGID_1_" x="-101.7" y="-21.1" width="457.9" height="504.4"/>
		</defs>
		<clipPath id="SVGID_2_">
			<use xlink:href="#SVGID_1_"  style="overflow:visible;"/>
		</clipPath>
		<g id="Group53" class="st2">
			<path class="st3" d="M-29.8,66.4c6.9,6.3,8.6,13.8,1.6,21.5l-3.7,4L-55,70.7l3.7-4C-44.3,59-36.7,60.1-29.8,66.4z M-25.2,61.4
				c-11.5-10.5-22.8-7.8-30.9,1l-8.2,8.9l32.6,29.9l8.2-8.9C-15.7,83.7-13.7,72-25.2,61.4z"/>
			<path class="st3" d="M-1.2,70L-27,34.2l23.1-16.7l3.8,5.2l-17.7,12.8l6.4,8.9l10.3-7.4l3.7,5.2l-10.3,7.4l8.2,11.3l18.5-13.3
				l3.8,5.2L-1.2,70z"/>
			<path class="st3" d="M46.7,41.7c-10,4.4-18.1,0.2-23-10.9L13.3,7.4l6.1-2.7l10.3,23.3c3.4,7.6,8.4,10.3,14.4,7.7
				c6.4-2.8,7.6-8.1,4.4-15.5L38-3.5l6-2.7l10.4,23.6C59.5,28.7,56.7,37.3,46.7,41.7z"/>
			<path class="st3" d="M81.9-9.4l7.7,36.9l-6.5,1.4L75.4-8L62.8-5.4l-1.3-6.4l31.7-6.6l1.3,6.4L81.9-9.4z"/>
			<path class="st3" d="M123.7,24.6c-6.4,0.1-12.1-2.6-15.8-6.9l4.6-4.7c3,3.2,7.4,5.1,11.6,5c6.2-0.1,9.1-2.3,9-6.6
				c-0.1-3.4-2.7-5.1-10.1-7.1c-9.4-2.6-13.9-4.9-14.1-12.8c-0.1-7.6,6.2-12.4,14.4-12.6c6-0.1,10.6,2,14.6,5.7l-4.6,4.8
				c-2.9-2.8-6-4.1-10.4-4.1c-5.2,0.1-7.3,2.7-7.3,5.6c0.1,3.1,2.1,4.6,9.8,6.7c8.8,2.5,14.2,5.2,14.4,13.1
				C139.9,18.9,135,24.4,123.7,24.6z"/>
			<path class="st3" d="M166.7,28.2c-11.2-2.1-16.7-12.6-14.2-25.8c2.4-13.2,11.3-21.1,22.5-19c7.1,1.3,11.3,5,13.3,10.8l-6.4,2.5
				c-1.6-4-3.6-6-8.1-6.9c-7.6-1.4-12.8,4-14.6,13.7c-1.8,9.8,1.2,16.7,8.7,18.1c4.6,0.8,7.7-0.5,10.6-3.6l4.7,4.6
				C179.1,27.4,173.3,29.4,166.7,28.2z"/>
			<path class="st3" d="M216.4,43.7l7.7-18.2l-18.7-7.9l-7.7,18.2l-6.1-2.6l17.2-40.7l6.1,2.6l-7,16.5l18.7,7.9l7-16.5l6.1,2.6
				l-17.2,40.7L216.4,43.7z"/>
			<path class="st3" d="M233,52.5l25.4-36.2l23.3,16.3l-3.7,5.3l-17.9-12.5l-6.3,8.9l10.4,7.3l-3.7,5.3l-10.4-7.3l-8,11.4l18.7,13.1
				l-3.7,5.3L233,52.5z"/>
			<path class="st3" d="M305.7,74.6c-3.5,3.3-7.3,2.6-10.3-0.6l-8.8-9.4l10.4-9.7l8.8,9.4C308.9,67.5,309.1,71.4,305.7,74.6z
				 M310.4,79.3c6.6-6.2,5.2-13.8-0.1-19.4l-13.3-14.1L264.8,76l4.4,4.7l12.8-12l6.8,7.3l-6.8,18.4l5.2,5.6l7-18.9
				C299.5,84.4,305.3,84.2,310.4,79.3z"/>
			<path class="st3" d="M-65.1,323.2l-10.3,5.2l5.8,11.3l-5.8,3l-5.8-11.3l-17.5,9l-3-5.9l39.4-20.1l13,25.4l-5.8,3L-65.1,323.2z"/>
			<path class="st3" d="M-70.8,386.4c-6.7-8.6-4.7-17.4,4.9-25l20.2-15.8l4.1,5.2l-20.1,15.7c-6.6,5.1-8,10.6-3.9,15.8
				c4.3,5.5,9.7,5.4,16.1,0.4l20.4-15.9l4.1,5.2L-45.3,388C-55,395.7-64,395.1-70.8,386.4z"/>
			<path class="st3" d="M-37.1,422c-4.9-4.2-7.3-9.9-7.3-15.7l6.6-0.4c0.1,4.4,2.1,8.8,5.3,11.5c4.7,4,8.3,4.3,11.2,1.1
				c2.2-2.6,1.4-5.6-2.8-12.1c-5.3-8.2-7.1-12.9-2-18.9c5-5.8,12.9-5.1,19.1,0.2c4.5,3.9,6.5,8.6,7,14l-6.7,0.5
				c-0.2-4-1.7-7.1-5-9.9c-3.9-3.4-7.3-2.9-9.2-0.7c-2,2.4-1.5,4.8,2.8,11.5c4.9,7.7,7.2,13.4,2,19.3
				C-21.1,428.5-28.5,429.4-37.1,422z"/>
			<path class="st3" d="M0.1,448.7c-5.6-3.3-9-8.5-10-14.1l6.4-1.6c0.9,4.3,3.7,8.2,7.3,10.4c5.3,3.1,9,2.8,11.2-0.9
				c1.7-2.9,0.3-5.7-4.9-11.4c-6.7-7.1-9.4-11.4-5.4-18.2c3.9-6.6,11.8-7.4,18.8-3.2c5.2,3,8,7.2,9.4,12.5l-6.4,1.7
				c-0.9-3.9-3-6.7-6.7-8.9c-4.5-2.6-7.6-1.6-9.2,1c-1.6,2.7-0.6,5,4.9,10.8c6.2,6.7,9.4,11.9,5.5,18.7
				C16.9,452.3,9.8,454.4,0.1,448.7z"/>
			<path class="st3" d="M64,441.2c-1,2.7-3.5,4.7-7.6,3.3l-11.2-3.9l3.8-10.8l11.2,3.9C64.3,435.2,65.1,438.1,64,441.2z M65.7,461.7
				c2-5.8-0.7-10.1-3.6-12.2c3.6-0.4,6.8-2.3,8.2-6.5c2.5-7-0.9-12.5-8.2-15L45,422l-14.6,41.7l16.6,5.8
				C56.1,472.7,62.8,470.2,65.7,461.7z M59.4,459.7c-1.4,4.1-4.4,6.2-10,4.3l-11.2-3.9l4.9-13.8l11.3,4
				C59.2,451.9,60.9,455.4,59.4,459.7z"/>
			<path class="st3" d="M102.5,465.2L89,463.4l4.9-9.5c1.6-3.1,3.8-7.9,4.6-9.7c0.2,1.9,1.3,7.3,1.9,10.5L102.5,465.2z M113,483.3
				l-9.9-46l-6.9-1l-21.8,41.6l6.8,0.9l5.1-9.9l17.5,2.4l2.3,10.9L113,483.3z"/>
			<path class="st3" d="M129,483.3l-2.4-44.2l6.6-0.3l2,37.6l22-1.2l0.4,6.5L129,483.3z"/>
			<path class="st3" d="M173.4,479.3l-10.1-43l6.5-1.5l8.6,36.7l21.5-5l1.5,6.3L173.4,479.3z"/>
			<path class="st3" d="M195,453.4l-2.1-6.1l15-5.1l2.1,6.1L195,453.4z"/>
			<path class="st3" d="M237.4,421.7c1.3,2.6,1,5.8-2.8,7.8l-10.5,5.5l-5.3-10.1l10.5-5.5C233.2,417.4,235.9,418.8,237.4,421.7z
				 M253.6,434.5c-2.8-5.5-7.8-6.4-11.4-5.7c2.1-2.9,3-6.5,0.9-10.4c-3.5-6.6-9.8-7.9-16.6-4.3l-16.1,8.4l20.5,39.2l15.6-8.2
				C255,449,257.8,442.4,253.6,434.5z M247.8,437.7c2,3.9,1.5,7.5-3.7,10.2l-10.5,5.5l-6.8-13l10.6-5.6
				C241.9,432.5,245.7,433.7,247.8,437.7z"/>
			<path class="st3" d="M287.8,426.9c-8.5,6.9-17.4,5-25.1-4.4l-16.2-19.8l5.1-4.2l16.1,19.7c5.3,6.5,10.8,7.7,15.9,3.5
				c5.4-4.4,5.2-9.8,0.1-16.1l-16.4-20l5.1-4.2l16.3,20C296.6,410.9,296.3,419.9,287.8,426.9z"/>
			<path class="st3" d="M331,380.7l-32.7-3.6c-2-0.2-5-0.7-6.3-0.9c1.3,1,6.1,4.8,8,6.4l17.9,14.4l-4,5l-34.5-27.7l4.2-5.3l31.5,3.8
				c2.1,0.2,5.9,0.8,7.2,1c-1.3-1-6.2-4.9-8.2-6.5l-17.8-14.3l4-5l34.4,27.7L331,380.7z"/>
			<path class="st3" d="M337.9,325.5c8.3,4.2,12,10.9,7.3,20.3l-2.5,4.8l-27.9-14.2l2.5-4.9C322,322.2,329.7,321.3,337.9,325.5z
				 M341,319.5c-13.9-7.1-24.1-1.4-29.5,9.1l-5.5,10.8l39.4,20.1l5.5-10.8C356.2,338.4,354.9,326.5,341,319.5z"/>
		</g>
		<path class="st4" d="M-64.6,230.3c0,106.7,86.8,193.6,193.4,193.6c106.7,0,193.4-86.8,193.4-193.6c0-106.6-86.8-193.4-193.4-193.4
			C22.1,36.9-64.6,123.7-64.6,230.3z M-53.6,230.3C-53.6,129.8,28.2,48,128.8,48c100.5,0,182.4,81.8,182.4,182.3
			c0,100.6-81.8,182.5-182.4,182.5C28.2,412.7-53.6,330.9-53.6,230.3z"/>
	</g>
	<path class="st5" d="M128.6-114.7c-190.4,0-344.8,154.4-344.8,344.7c0,78.7,26.4,151.1,70.7,209.1l29-14.9
		c-42.4-53.3-67.7-120.8-67.7-194.2c0-172.7,140-312.8,312.8-312.8c172.8,0,312.8,140,312.8,312.8c0,73.4-25.3,140.9-67.7,194.2
		l29,14.8c44.3-58,70.6-130.4,70.6-209C473.4,39.7,319.1-114.7,128.6-114.7z"/>
	<path class="st6" d="M-97.4,446.1l-28.5,16.4c36.2,39.6,81.6,70.7,132.7,90l14.4-28.7C-24.2,507.3-64.6,480.4-97.4,446.1z"/>
	<path class="st7" d="M383.1,462.7l-28.4-16.5c-32.9,34.4-73.6,61.3-119.2,77.9l14.8,28.5C301.5,533.3,346.8,502.3,383.1,462.7z"/>
	<path class="st8" d="M128.6,542.8c-28.9,0-56.9-4-83.5-11.4l-11.3,30c30.1,8.6,61.9,13.3,94.8,13.3c32.7,0,64.4-4.7,94.4-13.2
		l-11.4-30C185.2,538.9,157.4,542.8,128.6,542.8z"/>
	<path class="st9" d="M-138.2,230.1c0-147.1,119.7-266.7,266.8-266.7c147.1,0,266.8,119.7,266.8,266.7
		c0,147.1-119.7,266.7-266.8,266.7C-18.5,496.9-138.2,377.2-138.2,230.1z M-151.1,230.1c0,154.2,125.4,279.6,279.6,279.6
		c154.2,0,279.6-125.4,279.6-279.6C408.2,76,282.8-49.4,128.6-49.4C-25.6-49.4-151.1,76-151.1,230.1z"/>
	<path class="st6" d="M283.1,247.7c0,0-29.4-97.5-34.2-113.2c-4.1-13.4-14.6-12.5-14.6-12.5s-3.5,0.2-31.2-0.2
		c-26.7-0.3-29.3,6.4-10.3,31.5c6,8,3.7,9.1-11.8,11.8c-15.5,2.7-22.8-12.4-23.7-19.1c-0.9-6.7-4.3-30.3-4.7-31.4
		c-1-2.8,6.2-4.9,9.8-2.7c6.5,4.1,5.6,5.5,5.6-6.8c0-12.3-16.2-11.3-16.2-11.3c-1.1-13-20.5-10.8-26.7-10.4
		c-6.2,0.4-12.5,4.9-29,4.9c-16.6,0-13.7,21.3-13.7,21.3s7.7-2.3,13.6-2.1c5.8,0.2,20.8-0.2,16.3,9.1c0,0-12-4.3-17.7-4.3
		c-5.7,0-19.3-0.1-22.7-5.1c-3.4-4.9-4.7-6.5-4.7-6.5s-3.8,15.5,5,17.1c8.8,1.6,17.8,0,22.1-0.3c4.2-0.3,12.6-0.3,14.9,0
		c2.3,0.3-0.2,2.7-4.5,3c-4.4,0.3-14.4-0.4-11.7,4.1c2.7,4.5,7.4,7.1,10.2,7.6c2.8,0.6,10.6-0.7,7.2,7.6l-1.9,5.6
		c-2.2,6.4-9,21.4-24.5,18.6c-15.5-2.7-17.8-3.8-11.8-11.7c19-25.1,16.5-31.8-10.3-31.5c-27.7,0.3-31.1,0.1-31.1,0.1
		s-10.5-0.9-14.6,12.5c-4.8,15.6-41.7,114.7-41.7,114.7s-1.6,9.6,6.4,12.3c10.6,3.5,14-6.7,14-6.7l26.8-70.9c2,1.2,4,2.5,5.9,3.6
		l-33.4,92.7c0,0-3.4,10.2,7.4,14c9.6,3.3,14-8.7,14-8.7l32.2-87.7c1.7,0.7,3.4,1.5,5.1,2.1l-33.9,96.8c0,0-3.1,10.4,6.9,13.8
		c10,3.4,14-8.5,14-8.5l33.6-95.2c2,0.5,4,1,5.9,1.5c0,0.1,0,0.2,0,0.2l-17.1,57.1c0,0-2.8,9.8,6.8,13.6c9.6,3.8,14.9-9.1,14.9-9.1
		l15.7-50.4c0,0,6.4,26.2-4.9,44.6c-11.3,18.3-22.4,30.5-37,37.3c0,0,0.4,2.1,5.7,2.4c5.3,0.4,5.7,1.7,6.4,2.7l-7.5,11.5
		c0,0-1.1,4.2-6.2,1.9c-5.1-2.3-11.5-5.7-11.5-5.7s-6.6-1.7-8.1,1.5c-1.5,3.2-1.5,3.2-1.5,3.2s-7.5,0.7-8.5,5.1
		c-0.9,4.3,0.4,4.9,0.4,4.9s3.4-2.4,4.9-1.5c2,1.2,0.4,4.8,2.7,5.7c4.2,1.5,7.3-0.8,9.6-2.9c1.5-1.4,5.1,0.2,5.3,1.3
		c0.2,1.1-1.5,4.1-5.8,4.7c-4.3,0.6-13.8,2.2-13.2,7.2c0.5,4.2,0.6,4.5,0.6,4.5c-0.1,0.1-3.5,7.6,3.6,10.4c0,0,1.1-4.5,2.6-4.5
		c1.5,0,2.8,2.6,5.5,2.6c2.6,0,5.1-2.3,6.6-6.8c1.5-4.5,4.1-10.6,4.1-10.6s1.9-2.3,3-1.9c1.1,0.4,1.7,2.5,1.3,3.8
		c-0.4,1.3-1.1,4.3-1.3,5.1c-0.2,0.7-6.6,8.7-1.5,12.5c5.1,3.7,4.5,5.3,5.8,6.2c1.3,1,6.6,2.8,8.5,1.7c0,0-2.3-4.2-2.8-4.9
		c-0.6-0.8-0.4-2.2,3.2-2.2c3.6,0,3.6-4.5,1.3-7.9c-2.3-3.4-3.1-6.7-3.8-8.9c-1.5-4.5,2.5-6.1,4.4-1.5c1.7,4.4,1,8.7,4.9,8
		c2.9-0.4,3.6-2.4,4.9-2.2c1.3,0.2,5.1,2.8,3.1,7.6c0,0,8.8-1.4,5.8-9.5c-2-5.4-4.4-2.7-2.8-7.9c1.2-4.1-2.5-7.2-6.8-7
		c-4.1,0.2-9.4-0.9-6.8-5.8C76.3,318.3,80,312,80,312l6.2,7.2c0,0,5.9-14.7,11.1-21.3c5.3-6.6,11.7-14.7,14.7-13
		c3,1.7,4,23,1.5,33.8c-2.5,10.8-11.3,34.4-13.4,37.6c-2.1,3.2,11.7-2.1,13.4-2.7c1.7-0.6,5.1-4.7,5.8,1.7
		c0.8,6.4,3.3,18.6,9.1,24.9l0.1-0.2c5.9-6.2,8.7-18.9,9.4-25.3c0.7-6.4,4.1-2.2,5.9-1.7c1.7,0.6,15.5,5.8,13.4,2.6
		c-2.1-3.2-10.9-26.8-13.4-37.5c-2.5-10.8-1.5-32.1,1.5-33.8c3-1.7,9.4,6.4,14.7,13c5.3,6.6,11.1,21.3,11.1,21.3l6.2-7.2
		c0,0,3.7,6.3,6.4,11.5c2.6,4.9-2.7,6-6.8,5.8c-4.4-0.2-8,2.9-6.8,7c1.6,5.2-0.9,2.6-2.8,7.9c-3,8.1,5.8,9.5,5.8,9.5
		c-2-4.9,1.7-7.5,3.1-7.6c1.3-0.2,2,1.7,4.9,2.2c3.9,0.6,3.2-3.7,4.9-8c1.8-4.5,5.8-3,4.3,1.5c-0.7,2.2-1.5,5.5-3.8,8.9
		c-2.3,3.4-2.3,7.9,1.3,7.9c3.6,0,3.8,1.5,3.2,2.3c-0.6,0.8-2.8,4.9-2.8,4.9c1.9,1.1,7.2-0.8,8.5-1.7c1.3-0.9,0.7-2.4,5.8-6.2
		c5.1-3.8-1.3-11.7-1.5-12.5c-0.2-0.8-1-3.8-1.3-5.1c-0.4-1.3,0.2-3.4,1.3-3.8c1.1-0.4,3,1.9,3,1.9s2.6,6.1,4.2,10.6
		c1.5,4.5,4,6.8,6.6,6.8c2.7,0,4-2.7,5.5-2.7c1.5,0,2.6,4.5,2.6,4.5c7.1-2.8,3.6-10.3,3.6-10.4c0,0,0.1-0.4,0.6-4.5
		c0.5-4.9-8.9-6.6-13.2-7.2c-4.3-0.6-6-3.6-5.9-4.7c0.2-1.2,3.8-2.7,5.3-1.3c2.3,2,5.3,4.4,9.5,2.9c2.4-0.8,0.7-4.5,2.7-5.7
		c1.5-0.9,4.9,1.5,4.9,1.5s1.3-0.6,0.4-4.9c-0.9-4.3-8.5-5.1-8.5-5.1s0,0-1.5-3.2c-1.5-3.2-8.1-1.5-8.1-1.5s-6.4,3.4-11.5,5.7
		c-5.1,2.3-6.2-1.9-6.2-1.9l-6-13c0.7-0.9,1.1-2.3,6.4-2.6c5.3-0.4,5.7-2.5,5.7-2.5c-14.5-6.8-21.9-16.8-33.2-35.1
		c-11.3-18.3-4.9-44.5-4.9-44.5l15.7,50.4c0,0,5.3,12.8,14.9,9c9.6-3.8,6.8-13.6,6.8-13.6l-17.5-58.5c0,0,0,0,0-0.1
		c1.9-0.5,3.9-1,5.8-1.6l28.8,96c0,0,4,11.9,14.1,8.5c10-3.4,6.9-13.8,6.9-13.8L209.4,197c1.7-0.7,3.3-1.5,5-2.3c0,0,0,0.1,0,0.1
		l27.7,89.1c0,0,4.3,12,14,8.7c10.8-3.7,7.4-14,7.4-14l-29.2-94.7c0,0,0,0,0,0c1.9-1.2,3.7-2.4,5.6-3.6c0.6,0.6,0.7,1.2,0.7,1.2
		l22.1,71.8c0,0,3.4,10.2,14,6.7C284.8,257.3,283.1,247.7,283.1,247.7z M-11.7,249.3c0,0-1.8,5.7-5.1,4.2c-3.3-1.6-0.8-6.3-0.8-6.3
		s25.5-65.5,28-71.9c1.8,1.3,3.6,2.6,5.4,3.9L-11.7,249.3z M8.7,280.4c0,0-1.6,5.8-4.9,4.3c-3.3-1.5-1-6.3-1-6.3
		s27.4-75.8,31.8-87.9c2,1,3.9,2,5.8,3L8.7,280.4z M32.9,298c0,0-1.6,5.8-4.9,4.3c-3.3-1.4-1.1-6.3-1.1-6.3s27.9-79.9,33-94.4
		c2.1,0.7,4.1,1.4,6.2,2.1L32.9,298z M76.2,266.8c0,0-1.3,5.8-4.7,4.5c-3.4-1.3-1.3-6.2-1.3-6.2S83.5,220.6,87,209
		c2.2,0.4,4.4,0.8,6.5,1.1L76.2,266.8z M124.4,100.6c-2.7-0.1-5.1-2.8-5.1-2.8s1.4-2.7,5-2.6c3.5,0.2,5.1,2.6,5.1,2.6
		S127.1,100.8,124.4,100.6z M192.5,265.2c0,0,2.1,4.9-1.3,6.2c-3.4,1.3-4.7-4.5-4.7-4.5L169,211c0,0-0.4-0.7,0.2-1.8
		c1.8-0.3,3.7-0.7,5.7-1.1C176,211.6,192.5,265.2,192.5,265.2z M231.2,295.8c0,0,2.1,4.9-1.3,6.2c-3.4,1.3-4.7-4.5-4.7-4.5
		l-29.4-95.1c2-0.7,4.1-1.4,6.1-2.2C205.1,210.3,231.2,295.8,231.2,295.8z M255.5,278.8c0,0,2.1,4.9-1.3,6.2
		c-3.4,1.3-4.7-4.5-4.7-4.5L221.8,191c1.9-1,3.9-2.1,5.8-3.2C229.5,193.9,255.5,278.8,255.5,278.8z M274,252.9
		c-3.4,1.3-4.7-4.5-4.7-4.5l-22.4-73.1c1.8-1.3,3.7-2.7,5.5-4.2c0,0,0,0.1,0,0.1c0.6,1.8,22.9,75.5,22.9,75.5S277.4,251.6,274,252.9
		z"/>
</g>
<g id="_761874112">
	<path id="_polygon325" class="st10" d="M473.4-232.9L473.4-232.9L430-201.6l16.6,50.7l-43.2-31.6l-43.2,31.1l16.8-50.5l-43.2-31.2
		l53.4,0.3l16.4-51l16.4,50.9L473.4-232.9z"/>
	<path id="_polygon329" class="st10" d="M267.1-151L267.1-151l-43-31.4l-43,31.3l16.4-50.6l-43-31.4l53.4,0l16.4-50.6l16.2,50.6
		l53.4,0.3l-43.3,31.1L267.1-151z"/>
	<path id="_polygon333" class="st10" d="M34.8-182.4l-43,31.3l0,0l16.6-50.6l-43.3-31.1l53.4-0.2l16.3-50.6L51.1-233l53.4,0.1
		l-43,31.3L78.1-151L34.8-182.4z"/>
	<path id="_polygon3156" class="st10" d="M-187.6-151.4l16.8-50.4l-43.1-31.7l53.4,0.3l16.8-50.4l15.9,50.8l53.3,0.1l-43.2,31.1
		l16.2,50.7l-42.7-31.6L-187.6-151.4z"/>
</g>
</svg>
