<?xml version="1.0" encoding="utf-8"?>
<!-- Generator: Adobe Illustrator 25.0.1, SVG Export Plug-In . SVG Version: 6.00 Build 0)  -->
<svg version="1.0" id="Layer_1" xmlns="http://www.w3.org/2000/svg" xmlns:xlink="http://www.w3.org/1999/xlink" x="0px" y="0px"
	 viewBox="0 0 1157.6 848.2" style="enable-background:new 0 0 1157.6 848.2;" xml:space="preserve">
<style type="text/css">
	.st0{fill:#FFFFFF;}
	.st1{fill:#FFCB0B;}
	.st2{fill:#D72027;}
	.st3{fill:#242021;}
	.st4{fill:#FFCB05;stroke:#FFCB05;stroke-width:5.720000e-02;}
</style>
<g id="Ebene_x0020_1">
	<path id="_49638928" class="st0" d="M875.2,506.3c0,163.7-132.8,296.4-296.5,296.4C415,802.8,282.3,670,282.3,506.3
		c0-163.7,132.7-296.5,296.4-296.5C742.5,209.9,875.2,342.6,875.2,506.3z"/>
	<path id="_49635496" d="M578.4,265.7c128.8,0,233.5,104.7,233.5,233.4S707.2,732.7,578.4,732.7c-128.7,0-233.4-104.8-233.4-233.5
		S449.7,265.7,578.4,265.7z M800.7,499.2c0-122.6-99.7-222.2-222.3-222.2c-122.6,0-222.2,99.7-222.2,222.2
		c0,122.6,99.7,222.3,222.2,222.3C701,721.5,800.7,621.7,800.7,499.2z"/>
	<path id="_49643576" d="M490,749.7l-12,23.4c-42.3-16-79.9-41.6-109.9-74.3l23.2-13.3C418.5,713.9,452.3,736,490,749.7L490,749.7z"
		/>
	<path id="_49648912" class="st1" d="M765.6,685.4l23.2,13.3c-30.1,32.7-67.6,58.3-109.9,74.3l-12-23.4
		C704.6,735.9,738.3,713.9,765.6,685.4L765.6,685.4z"/>
	<path id="_49652984" class="st2" d="M578.4,765.3c23.8,0,46.8-3.4,68.7-9.4l9.4,24.5c-24.9,7.1-51,11.1-78.1,11.1
		c-27.1,0-53.3-4-78.1-11.1l9.5-24.5C531.7,761.9,554.7,765.3,578.4,765.3z"/>
	<path id="_49656320" class="st3" d="M300.1,506.4c0-153.5,124.9-278.3,278.3-278.3c153.5,0,278.3,124.8,278.3,278.3
		c0,67.7-24.3,129.8-64.6,178.1l5.9,3.4c40.9-49.3,65.4-112.6,65.4-181.4c0-157.1-127.9-284.9-285-284.9
		c-157.1,0-285,127.8-285,284.9c0,68.9,24.6,132.2,65.5,181.5l5.9-3.4C324.4,636.3,300.1,574.2,300.1,506.4L300.1,506.4z"/>
	<path id="_49660880" d="M417.2,338c-43,43-66.7,100.2-66.7,161c0,60.8,23.7,118,66.7,161c43,43,100.2,66.7,161,66.7
		c60.8,0,118-23.7,161-66.7c43-43,66.7-100.2,66.7-161c0-60.8-23.7-118-66.7-161c-43-43-100.2-66.7-161-66.7
		C517.4,271.3,460.3,295,417.2,338L417.2,338L417.2,338z"/>
	<path id="_49665672" class="st0" d="M421.8,655.6c-41.8-41.8-64.8-97.4-64.8-156.5c0-59.1,23-114.7,64.8-156.5
		c41.8-41.8,97.4-64.8,156.5-64.8c59.1,0,114.7,23,156.5,64.8c41.8,41.8,64.8,97.4,64.8,156.5c0,59.1-23,114.7-64.8,156.5
		c-41.8,41.8-97.4,64.8-156.5,64.8C519.1,720.4,463.6,697.3,421.8,655.6L421.8,655.6z"/>
	<path id="_49671224" d="M420.8,499c0,86.8,70.6,157.5,157.5,157.5c86.8,0,157.5-70.7,157.5-157.5c0-86.8-70.6-157.5-157.5-157.5
		C491.4,341.6,420.8,412.2,420.8,499L420.8,499L420.8,499z"/>
	<path id="_49675736" class="st0" d="M427.2,499c0-83.3,67.8-151.1,151.1-151.1c83.3,0,151.1,67.8,151.1,151.1
		c0,83.3-67.8,151.1-151.1,151.1C494.9,650.1,427.2,582.4,427.2,499L427.2,499L427.2,499z"/>
	<polygon id="_49683736" points="422.2,357.5 437.5,342.2 442,346.8 431.9,356.9 439,364 448.2,354.7 452.8,359.3 443.5,368.5 
		451.6,376.6 461.8,366.4 466.3,371 450.9,386.3 	"/>
	<path id="_49679424" d="M458.3,325.8l6.5-3.9l12.8,20.3c3.8,6,8.5,8.9,13.5,5.9c5-3,5.3-9,1.5-15l-12.8-20.3l6.5-3.9l14.2,22.5
		c5.9,9.4,2.4,17.3-5.9,22.2c-8.3,5-16.2,4-22.2-5.4L458.3,325.8L458.3,325.8L458.3,325.8z"/>
	<polygon id="_49513912" points="517.7,303.4 510.3,305.6 508.4,300 530.1,293.8 531.9,299.4 524,301.6 533.8,334.9 527.5,336.8 	
		"/>
	<path id="_49514200" d="M573.3,295.9c-2.4-0.9-5-1.4-7.6-1.2c-2.5,0.2-5.7,1.6-5.4,6c0.5,7,16.3,3,17.3,16.6
		c0.6,8.9-5.5,12.7-12.9,13.2c-4,0.3-5.8-0.2-9.5-0.9l0.2-7.4c2.6,1.3,5.6,2.1,8.4,1.9c2.8-0.2,6.4-2,6.1-5.7
		c-0.5-7.7-16.3-3.4-17.3-16.9c-0.6-9.1,5.5-12.8,11.9-13.3c3.1-0.2,6.1,0,8.8,0.8L573.3,295.9L573.3,295.9z"/>
	<path id="_49516832" d="M622.4,333.8c-2.8,0.2-7.2,1.3-9.9,0.8c-11.7-2-19.2-12-16.8-25.5c2.4-13.7,15-18.4,25.5-16
		c2.4,0.5,6.4,2.5,8.9,4.1l-1.7,6.7c-2.4-2.2-5.9-4-8.4-4.5c-7.4-1.3-15.2,2.2-16.6,10.4c-1.4,8.2,2.6,17.1,10.3,18.5
		c2.8,0.5,7.8-0.6,9.7-1.3L622.4,333.8L622.4,333.8z"/>
	<polygon id="_49690248" points="658.2,304.5 665.5,308.3 658,322.9 674,331.3 681.5,316.7 688.8,320.4 670.3,356.7 663,353 
		671.1,337.1 655.1,328.6 647,344.5 639.7,340.8 	"/>
	<polygon id="_49693648" points="714.7,340.1 730.4,355 726,359.6 715.6,349.8 708.7,357.1 718.2,366.1 713.8,370.8 704.3,361.8 
		696.5,370.1 707,380 702.6,384.7 686.7,369.8 	"/>
	<path id="_49521856" d="M748.4,388.1l1.3,2c2.4,3.5,4.7,8.1,0.5,11c-4.9,3.4-8.6,0.2-11.2-3.7l-1.3-2.1L748.4,388.1L748.4,388.1z
		 M715.6,401.4l3.9,5.9l12.4-8l1.3,2c-0.8,1.9-6.6,16.7-6.6,16.7l4.5,7.1l7.5-19c5.4,3.9,11.1,4,15.7,0.7c8.4-6.2,4.2-14.3-0.5-21.3
		l-4.3-6.6L715.6,401.4L715.6,401.4z"/>
	<path id="_49697088" d="M399.4,403.6l2-3.7c2.9-5.5,10.3-8.5,18.3-4.2c8,4.2,9.7,12,6.8,17.5l-1.9,3.7L399.4,403.6L399.4,403.6z
		 M426.9,426.6l4.8-9c5.4-10.1,6.3-21.1-8.3-28.8c-14.6-7.7-23.1-0.8-28.5,9.4l-4.8,9L426.9,426.6L426.9,426.6z"/>
	<polygon id="_49705632" points="409.6,513 411.6,533.3 405.2,533.9 403.9,521 393.9,522 395.2,534.3 388.8,535 387.5,522.6 
		369.8,524.4 369,517.1 	"/>
	<path id="_49701912" d="M415.1,549.4l3,7.2l-21.7,9c-6.4,2.7-9.8,6.3-7.5,11.8c2.3,5.5,7.3,5.7,13.7,3l21.7-9l3,7.2l-24,10
		c-10.1,4.2-16.5,0.5-20.3-8.7c-3.8-9.2-1.9-16.3,8.2-20.5L415.1,549.4L415.1,549.4L415.1,549.4z"/>
	<path id="_49709064" d="M485.9,667.4l3.1,1.7c3.2,1.8,6.3,4.3,3.7,9c-2.3,4.2-6.3,3-9.3,1.4l-3-1.7L485.9,667.4L485.9,667.4z
		 M493.6,653.3l2.5,1.4c3,1.6,6.1,3.7,3.8,7.8c-2,3.7-5.7,2.5-8.5,1l-2.6-1.4L493.6,653.3L493.6,653.3z M470.7,679.9L482,686
		c4.1,2.2,12.1,4.8,17-4.2c2.4-4.4,1.2-9.3-2.9-12.2l0.1-0.1c4.2,1.3,8.4-0.3,10.8-4.5c4.3-7.8-1.2-12.6-5.4-14.8l-11.2-6.1
		L470.7,679.9L470.7,679.9L470.7,679.9z"/>
	<path id="_49713072" d="M540.8,691l-12.5-3.5l10.6-14.7l0.1,0L540.8,691L540.8,691z M510.5,699l7.4,2l6.8-7.8l16.5,4.6l1,9.7
		l7.9,2.1l-4.7-43.4l-8-2.2L510.5,699L510.5,699z"/>
	<polygon id="_49722760" points="570.5,670.4 577.9,670.3 578.4,704.6 592.6,704.3 592.7,710.8 571.2,711.1 	"/>
	<polygon id="_49725504" points="605,667.8 612.2,666.3 619.4,699.8 633.3,696.8 634.7,703.1 613.6,707.6 	"/>
	<polygon id="_49727952" points="635.6,684.9 633.4,678.9 649.3,673.1 651.5,679.1 	"/>
	<path id="_49728000" d="M672.9,666.5l3-1.8c3.2-1.9,6.9-3.2,9.6,1.4c2.4,4-0.6,7-3.6,8.7l-3,1.8L672.9,666.5L672.9,666.5z
		 M664.6,652.7l2.4-1.5c2.9-1.7,6.3-3.4,8.7,0.7c2.2,3.6-0.7,6.2-3.4,7.8l-2.6,1.5L664.6,652.7L664.6,652.7z M676,685.9l11-6.6
		c4-2.4,10.3-8,5-16.7c-2.6-4.3-7.4-5.8-12-3.6l-0.1-0.1c3.3-3,4.1-7.4,1.6-11.6c-4.6-7.7-11.5-5.3-15.5-2.9l-11,6.6L676,685.9
		L676,685.9L676,685.9z"/>
	<path id="_49730520" d="M688.9,629.3l5.4-5.6l17,16.3c5,4.8,9.7,6.4,13.9,2.2c4.1-4.3,2.3-8.9-2.7-13.8l-17-16.3l5.4-5.6l18.8,18
		c7.9,7.5,7.1,14.9,0.2,22.1c-6.9,7.2-14.2,8.3-22,0.7L688.9,629.3L688.9,629.3z"/>
	<polygon id="_49739760" points="720.3,593.8 724,586.1 762,578.5 734.4,565.5 736.9,559.3 773.8,576.5 770.9,582.9 732.8,591.4 
		760.3,604.4 757.3,611 	"/>
	<path id="_49732840" d="M430.6,603.8c3.7-2.5,6.8,0.3,8.2,2.4c0.9,1.3,0.8,2.8,1.3,4.3l6.6-0.5c-0.7-2.7-0.8-5.6-2.6-8.2
		c-3.6-5.3-10.5-9.2-18.1-4.1c-10.2,6.8,1.1,20.7-5.3,25.1c-3,2.1-6.7-0.9-8.3-3.2c-1-1.4-1.1-3.6-1.5-5.2l-7,0
		c1.2,3.6,1.2,5.9,3.5,9.2c4.2,6.1,11.9,9.6,18.2,5.2C436.7,620.9,424.7,607.8,430.6,603.8L430.6,603.8L430.6,603.8z"/>
	<path id="_49742960" d="M456.2,632.8c3.1-3.1,6.7-0.9,8.5,0.8c1.1,1.1,1.3,2.6,2,4l6.4-1.7c-1.2-2.5-1.8-5.4-4-7.6
		c-4.6-4.6-12-7.1-18.5-0.8c-8.8,8.6,4.9,20.1-0.6,25.6c-2.6,2.6-6.8,0.3-8.7-1.7c-1.2-1.2-1.7-3.3-2.5-4.9l-6.9,1.3
		c1.9,3.3,2.3,5.6,5.1,8.4c5.2,5.3,13.5,7.3,18.8,1.8C465.4,648.5,451.2,637.7,456.2,632.8L456.2,632.8z"/>
	<path id="_49747880" d="M750.8,532.6l0.9-4.1c1.3-6.1,7.7-11,16.5-9.1c8.8,1.9,12.6,8.9,11.3,15l-0.9,4.1L750.8,532.6L750.8,532.6z
		 M783.4,547.3l2.2-10c2.4-11.2,0.3-22-15.8-25.5c-16.1-3.5-22.4,5.5-24.8,16.7l-2.2,10L783.4,547.3L783.4,547.3z"/>
	<path id="_49752904" d="M717,510.6l-24.2-76.3l0.1,0c-1-3-1.9-5.8-2.8-8.4l-6.2-19.5l-0.2,0.1c-0.9-2.9-1.4-4.2-3.6-6.2
		c-2.9-2.7-4.3-2.8-25.5-2.9c-24.3-0.2-29.8,0.2-30.7,6c-1.1,7.2,3.8,14.3,9.3,19.6c6.9,6.6,6.8,10.9-2.7,14.1
		c-6.2,2.1-12.1,1.9-19.2-1.8c-7.1-3.7-9.3-8.6-13-29.9c-1.9-10.7-2.3-14.9-2.6-16.8c-0.3-1.9,3.6-2.5,6-2.5c4.8,0,8.2,2.3,8.2,2.3
		s1.1-11.9-4.9-14.7c-5.2-2.4-9.2-0.7-9.2-0.7s-1.8-12.6-18.1-11.3c-11.1,0.1-24.6,5.6-24.6,5.6s-8.9-1-13.9,2.4
		c-6.3,4.3-5.2,15-5.2,15s18-2.7,24.8-0.1c6.4,2.4,2.3,11.5-1.5,12c-3,0.3-14.2,1.3-14.2,1.3s1.4,6.5,7,8.1c5.6,1.6,7.9,0.8,9.2,2.3
		c1.5,1.7,0,6.4-1.6,10.3c-1.6,4-5,16.4-10.9,19.1c-5.8,2.7-13.5,3.2-22,0.5c-8.5-2.7-10.3-4.8-5-10.3c5.3-5.6,16.2-11.7,14.9-18.8
		c-1.3-7.2-4.3-11.5-25.5-11.5c-21.2,0-26.8,0.3-29.7,2.9c-2.9,2.7-4,4-5.8,9.6c-0.7,2-3.9,11.7-8.1,24.4l0.3,0.2l-26.5,79.1
		c-1.1,3.4-1.5,10.5,5.1,13c3.4,1.3,6,0.6,7.6-0.1c3.7-1.8,5-5.6,5.1-6.1l22.6-68.2l0,0.1c0,0,1-3,2.4-2.1c1.4,1,3.5,2.7,3.8,3.2
		c0.3,0.5,0.6,1.1,0,2.9c-0.1,0.2-0.1,0.3-0.1,0.5l-29.1,86.9c-1.1,3.4-1.5,10.6,5.1,13c3.4,1.3,6,0.6,7.6-0.1
		c3.7-1.8,5-5.6,5.1-6.1l27.8-83.9l0,0.1c0,0,0.9-3.3,2.3-2.7c1.4,0.6,3.5,2,3.8,2.4c0.2,0.3,0.4,0.6,0.4,1.2l-30.3,90.6
		c-1.1,3.4-1.5,10.6,5.1,13.1c3.4,1.3,6,0.6,7.6-0.1c3.7-1.8,5-5.6,5.1-6.1l29.3-88.7l0.1,0.2c0,0,0.8-3.3,2.3-2.8
		c1.5,0.5,3.7,1.5,4,1.8c0.3,0.4,0.7,0.9,0.1,2.8c-0.1,0.3-0.1,0.5-0.1,0.7L515,530.6c-1.1,3.4-1.5,10.5,5.1,13
		c3.4,1.3,6,0.6,7.6-0.1c3.7-1.8,5-5.6,5.1-6.1l14.2-43.1c1.3-4,2.2-5.7,2.5-5.7c1.8,0.2,2.3,3,2.5,10.1c0.2,5.2-0.3,14-2.2,20
		c-3.6,10.9-11.5,31.9-33.1,43.8c4.9,2.1,8.2,3.3,7.6,5.5c-0.6,2.1-6.6,11.8-9.8,12.3c-4.3,0.7-8-2.5-10.5-3.8
		c-2.6-1.4-4.4-1.8-6.2-1.1c-2.6,1-3.7,3.2-3.7,3.2s-8.2,1.5-7.7,7.6c2.1-2.2,3.8-2.8,5.7-2.8c-0.2,2.9,0,6.5,3.1,6.4
		c4.2-0.2,5.1-2.8,9.1-2.7c2.9,0.1,1.6,3.7,0,4.9c-2.4,1.8-6.1,4.1-10.3,4.9c-4.3,0.8-8.7,3.6-5.5,8.4c0.5,0.4-2,6.2,3.1,9
		c0-3.3,1.9-5.8,2.5-5.4c3.1,2.4,6.1,2.6,7.9,1.2c2.7-2.2,2.3-8.6,5-12.6c2.1-3.2,4-5,6.2-3.8c2.3,1.3,0.7,6.2-0.6,8.7
		c-1.2,2.4-5.7,7.8-3.9,10.6c1.4,2.1,4.1,1.9,4.1,1.9s1.1,6.9,9.3,6.3c-2.1-2-3.1-6.2-2.3-6.3c3.7-0.4,4.7-3.8,2.8-6.8
		c-2-3.2-5.9-8.2-2.1-10.3c3.3-1.8,2.5,4.5,4.2,5.6c2.7,1.8,6,0.3,8.2-1.1c0.6-0.4,1.3-0.5,2.2,1.9c0.7,1.7-0.5,5.1-0.5,5.1
		s5-3.3,5-7c0-2.9-2.2-5-2.2-5s2.5-5-1.2-7c-1.9-1-7.6-0.5-9.9-2.3c-3.3-2.5,2-8,6-13.2c1.8-2.4,5,2.4,8.2,8.5
		c1.6-9.1,3.3-14.2,9.1-23.1c5.5-8.6,11.1-14.4,14.3-13.4c3,1,3,20.7,1.5,31c-1.5,10.3-10.6,34-10.6,34l15.5-4.6
		c0,0,1.1,18.8,7.5,25.5c7.8-8.6,9-25.5,9-25.5l15.9,4.6c0,0-9.9-23.7-11.5-34c-1.5-10.3-2.8-29.4,1.5-31c3.5-1.3,8.7,4,14.7,12.7
		c6,8.8,7.6,12.4,9.4,18.5c3.2-6.6,6-7.8,7.6-5c1.8,3.1,7.6,11.9,2.6,14.1c-3.4,1.5-6.1,0.2-9.1,2.4c-3,2.1,0.2,6.7,0.2,6.7
		s-3.1,1-3.8,5.1c-0.6,4,3.2,7.6,3.2,7.6s0.8-5.9,4.1-7.2c1-0.3,1.4,1.9,3.4,2.1c2.6,0.3,3.4-0.9,4.1-2.6c0.8-1.8-0.5-7.2,4.9-6.6
		c3.8,0.4-0.5,8.9-3.3,13.3c-1.5,2.4-0.5,7,4.6,5.9c2.3-0.5,0.3,3.9-1.5,6.1c8.2,0.6,9.4-6.1,9.4-6.1s2.5,0.3,4-1.8
		c1.8-2.7-2.4-8.2-3.6-10.6c-1.2-2.4-2.4-6-0.1-7.3c2.9-1.8,4.7,1.4,5.9,3.8c1.2,2.4,2.1,8.7,4.6,11.1c2.4,2.4,5,1.3,6.6,0.1
		c2.4-1.8,4.1,0.2,4.4,2.9c3.5-1.7,3.8-7.1,2-9.7c2.6-5.2-2.5-7.7-7.2-7.4c-3.5,0.2-6.2-1.4-8.8-4.1c-1.3-1.4-1.2-3.7,2.1-4.4
		c4-0.9,4.2,4,9.4,3.5c2.8-0.3,3.3-2.2,2.6-5.3c2.1-1.2,3.8-1.5,6.2,0.3c0-7.7-7.8-6.6-7.8-6.6s-0.3-3.6-3.7-4.8
		c-2.6-0.9-5.7,0.2-7.9,2.1c-2.2,1.9-7.1,4.4-10.6,3.9c-3.4-0.4-8.2-11.9-8.9-14c-0.6-2.1,4.1-4.1,9.7-5.3
		c-21.6-11.8-28.7-27.1-32.5-37.9c-2.4-6.7-3.7-12.1-4-23c-0.2-8.2,0.9-12,1.8-12.4c1.2-0.5,1.9,4.4,3.2,8l12.7,40.3
		c0.1,0.4,1.4,4.3,5,6.1c1.5,0.8,4.1,1.4,7.6,0.1c6.7-2.5,6.4-9.6,5.4-13l-15.6-49c-0.1-1.6,0.3-2.4,1-2.9c1.5-1.1,2.5-1.4,4-1.8
		c1.1-0.3,2.2,1.5,2.7,2.5l26.7,85.3c2.2,8.2,8.6,7.5,12.7,6c6.3-2.1,5.4-9.2,4.4-12.6l-27.3-85.9c-0.1-1.3,0.2-2.3,0.5-2.6
		c0.3-0.4,1.5-1.1,3-1.7c1.4-0.6,2.7,2.3,2.7,2.3l0-0.1l25.2,80.4c0.1,0.4,1.4,4.3,5,6.1c1.5,0.7,4.1,1.4,7.6,0.1
		c6.7-2.5,6.4-9.6,5.3-13l-26.2-82.6c0-0.2,0-0.4-0.1-0.6c-0.6-1.8-0.7-3.3,0.2-4c0.4-0.4,2-1.4,3.4-2.4c1.4-1,2.6,2.2,2.6,2.2v-0.1
		l20.1,64.2c0.1,0.4,1.4,4.3,5,6.1c1.5,0.8,4.1,1.4,7.6,0.1C718.3,521.2,718.1,514,717,510.6L717,510.6L717,510.6z M475.1,447.4
		c0,0.1-0.1,0.2-0.1,0.4l-23.4,70.7c-0.2,0.5-0.9,2-2.1,2.6c-0.8,0.4-1.7,0.3-2.9-0.1c-2.9-1.1-1.7-5.2-1.6-5.6
		c0,0,14.3-42.6,24.6-73.3c0.4-0.6,1-1.1,1.7-0.6c1.4,1,3.5,2.7,3.8,3.2C475.5,445,475.8,445.6,475.1,447.4L475.1,447.4z
		 M469.1,548.6c-0.2,0.5-0.9,2-2.1,2.6c-0.8,0.4-1.7,0.3-2.9-0.1c-2.9-1.1-1.7-5.2-1.6-5.6c0,0,18.6-55.7,28.7-85.6l0,0
		c0,0,1-3.1,2.5-2.3c1.5,0.8,3.6,2.3,3.9,2.7c0.2,0.3,0.4,0.6,0.4,1.3L469.1,548.6L469.1,548.6L469.1,548.6z M520.3,474.2
		c0,0,0,0.1,0,0.1l-29.4,88.8c-0.2,0.5-0.9,2-2.1,2.6c-0.8,0.4-1.7,0.3-2.9-0.1c-2.9-1.1-1.7-5.2-1.6-5.6c0,0,19.9-59.3,29.6-88.5
		l0.1,0.1c0,0,0.8-3.2,2.3-2.6c1.5,0.6,3.6,1.9,3.9,2.3C520.5,471.7,520.9,472.3,520.3,474.2L520.3,474.2z M544.9,482.3l-17.7,53.4
		c-0.2,0.5-0.9,2-2.1,2.6c-0.8,0.4-1.7,0.3-2.9-0.1c-2.9-1.1-1.7-5.2-1.6-5.6c0,0,8.7-26.1,17.5-52.1l0.1,0.1c0,0,0.8-3.3,2.4-3
		c1.5,0.2,3.8,0.9,4.2,1.2c0.4,0.3,0.7,0.7,0.1,2.7C544.8,481.8,544.8,482.1,544.9,482.3L544.9,482.3z M570.9,378.1
		c-2.9,0-5.2-3.4-5.2-3.4s2.3-3.4,5.2-3.4c2.9,0,5.2,3.4,5.2,3.4S573.8,378.1,570.9,378.1L570.9,378.1z M635.4,529.7
		c0.1,0.5,1.3,4.5-1.7,5.6c-1.2,0.4-2.1,0.5-2.9,0.1c-1.2-0.6-1.9-2.1-2.1-2.6l-15.7-50c0-0.1,0-0.3-0.1-0.4
		c-0.6-1.9-0.2-2.4,0.1-2.7c0.4-0.3,3-1.2,4.5-1.4c1-0.2,1.8,1.3,2.1,2.2C627.8,505.6,635.4,529.7,635.4,529.7L635.4,529.7
		L635.4,529.7z M671.5,557.6c0.6,2.1,0.8,4.3-1.6,5.1c-2.1,0.7-3.4,0.2-4.3-2.7c-0.7-2.1-17.4-55.6-26.3-83.9c0-0.1,0-0.2-0.1-0.3
		c-0.9-2.7-0.3-3.8,0-4.2c0.3-0.4,1.6-1,3.1-1.5c1.3-0.4,2,2.5,2,2.5l0.1-0.2C654.1,502.8,671.5,557.6,671.5,557.6L671.5,557.6
		L671.5,557.6z M693.3,542.6c0.1,0.5,1.3,4.5-1.7,5.6c-1.2,0.4-2.1,0.5-2.9,0.1c-1.2-0.6-1.9-2.1-2.1-2.6l-25.6-81.6
		c-0.2-1.9-0.1-3.1,0.8-3.8c0.9-0.7,1.8-1.1,2.9-1.5c1.6-0.5,2.5,2.2,2.5,2.2l0-0.1L693.3,542.6L693.3,542.6L693.3,542.6z
		 M709.7,518.1c-1.2,0.4-2.1,0.5-2.9,0.1c-1.2-0.6-1.9-2.1-2.1-2.6l-21.5-68.5c-0.1-0.9,0.1-1.3,0.3-1.7c0.3-0.5,2.4-2.2,3.8-3.2
		c1-0.6,1.7,0.6,2.1,1.4l21.8,68.8C711.5,512.9,712.6,517,709.7,518.1L709.7,518.1z"/>
	<path id="_49756872" d="M560.2,393c0,0-4.2-3.2-11.9-3.7c-7.7-0.5-13.7,0.5-19.3-1.1c-5.6-1.6-9.6-9.3-9.6-9.3s-2.6,10.1,5.5,13.9
		c7.1,3.4,17-0.4,22.3-0.6C552.5,391.9,557,392.2,560.2,393L560.2,393z"/>
	<polygon id="_49859208" class="st4" points="577.9,45.5 592.5,90.6 639.6,90.6 601.5,118.3 616.2,163.4 577.9,135.4 539.6,163.4 
		554.3,118.3 516,90.6 563.3,90.6 	"/>
	<polygon id="_49859208_0" class="st4" points="798.8,45.4 813.3,90.6 860.5,90.5 822.3,118.3 837.1,163.3 798.8,135.4 760.5,163.3 
		775.2,118.3 736.8,90.5 784.2,90.6 	"/>
	<polygon id="_49859208_1" class="st4" points="359.3,45.7 373.9,90.8 421.4,90.8 382.9,118.5 397.6,163.6 359.3,135.6 321,163.6 
		335.7,118.5 297.3,90.8 344.7,90.8 	"/>
</g>
</svg>
