<?xml version="1.0" encoding="UTF-8"?>
<svg xmlns="http://www.w3.org/2000/svg" xmlns:xlink="http://www.w3.org/1999/xlink" width="568pt" height="722pt" viewBox="0 0 568 722" version="1.1">
<g id="surface1">
<path style=" stroke:none;fill-rule:evenodd;fill:rgb(0%,0%,0%);fill-opacity:1;" d="M 481.375 254.449219 C 507.9375 279.242188 529.488281 309.347656 544.332031 343.070313 C 558.972656 376.34375 567.101563 413.128906 567.101563 451.8125 C 567.101563 526.21875 537.027344 593.597656 488.402344 642.386719 C 439.777344 691.171875 372.609375 721.355469 298.441406 721.355469 C 224.273438 721.355469 157.101563 691.171875 108.476563 642.386719 C 59.851563 593.597656 29.78125 526.21875 29.78125 451.8125 C 29.78125 415.480469 36.957031 380.820313 49.972656 349.15625 C 63.011719 317.433594 81.910156 288.757813 105.3125 264.480469 L 105.273438 264.417969 L 105.273438 264.414063 L 3.023438 99.789063 L 1.636719 97.550781 L 3.65625 95.835938 C 4.175781 95.390625 183.058594 -59.902344 452.660156 34.652344 L 454.722656 35.375 L 454.722656 69.632813 C 464.40625 73.007813 505.988281 88.65625 558.222656 125.238281 L 560.59375 126.902344 L 559.070313 129.359375 Z M 538.726563 345.542969 C 523.882813 311.816406 502.203125 281.8125 475.46875 257.300781 L 475.324219 257.167969 L 477.296875 254.871094 L 474.851563 253.351563 L 552.339844 128.585938 C 494.585938 88.597656 450.851563 74.78125 450.71875 74.738281 L 448.585938 74.046875 L 448.585938 39.730469 C 199.621094 -46.539063 29.820313 82.429688 9.640625 98.824219 L 111.773438 263.261719 L 110.257813 264.210938 L 112.210938 266.167969 C 88.183594 290.4375 68.828125 319.363281 55.628906 351.484375 C 42.925781 382.390625 35.914063 416.265625 35.914063 451.8125 C 35.914063 524.546875 65.304688 590.398438 112.816406 638.070313 C 160.320313 685.730469 225.949219 715.21875 298.441406 715.21875 C 370.929688 715.21875 436.5625 685.730469 484.066406 638.070313 C 531.578125 590.398438 560.964844 524.546875 560.964844 451.8125 C 560.96875 413.992188 553.019531 378.039063 538.726563 345.542969 Z M 108.585938 269.746094 C 103.277344 274.980469 106.015625 272.292969 108.59375 269.757813 L 108.585938 269.746094 "/>
<path style=" stroke:none;fill-rule:evenodd;fill:rgb(94.139099%,85.15625%,10.205078%);fill-opacity:1;" d="M 477.386719 254.914063 C 530.625 303.648438 564.035156 373.820313 564.035156 451.8125 C 564.035156 598.957031 445.101563 718.285156 298.441406 718.285156 C 151.78125 718.285156 32.847656 598.957031 32.847656 451.8125 C 32.847656 378.546875 62.332031 312.1875 110.039063 264.011719 C 109.484375 264.5625 109.171875 264.882813 109.171875 264.882813 L 5.632813 98.171875 C 5.632813 98.171875 183.726563 -56.425781 451.65625 37.539063 L 451.65625 71.824219 C 451.65625 71.824219 497.15625 86.199219 556.464844 127.742188 L 477.449219 254.96875 L 477.386719 254.914063 "/>
<path style=" stroke:none;fill-rule:evenodd;fill:rgb(1.177979%,48.631287%,28.24707%);fill-opacity:1;" d="M 297.53125 197.960938 C 437.765625 197.960938 551.492188 311.6875 551.492188 451.925781 C 551.492188 592.160156 437.765625 705.890625 297.53125 705.890625 C 157.296875 705.890625 43.566406 592.160156 43.566406 451.925781 C 43.566406 311.6875 157.296875 197.964844 297.53125 197.960938 "/>
<path style=" stroke:none;fill-rule:evenodd;fill:rgb(0%,0%,0%);fill-opacity:1;" d="M 297.53125 195.65625 C 368.285156 195.65625 432.347656 224.351563 478.726563 270.722656 C 525.105469 317.105469 553.792969 381.171875 553.792969 451.925781 C 553.792969 522.679688 525.105469 586.746094 478.726563 633.121094 C 432.347656 679.5 368.285156 708.191406 297.53125 708.191406 C 226.777344 708.191406 162.710938 679.5 116.335938 633.121094 C 69.957031 586.746094 41.265625 522.679688 41.265625 451.925781 C 41.265625 381.171875 69.957031 317.105469 116.335938 270.722656 C 162.710938 224.351563 226.777344 195.65625 297.53125 195.65625 Z M 475.472656 273.980469 C 429.929688 228.4375 367.011719 200.265625 297.53125 200.265625 C 228.046875 200.265625 165.132813 228.4375 119.585938 273.980469 C 74.042969 319.527344 45.867188 382.441406 45.867188 451.925781 C 45.867188 521.40625 74.042969 584.324219 119.585938 629.867188 C 165.132813 675.410156 228.046875 703.585938 297.53125 703.585938 C 367.011719 703.585938 429.929688 675.410156 475.472656 629.867188 C 521.019531 584.324219 549.191406 521.40625 549.191406 451.925781 C 549.191406 382.441406 521.019531 319.527344 475.472656 273.980469 "/>
<path style=" stroke:none;fill-rule:evenodd;fill:rgb(94.139099%,85.15625%,10.205078%);fill-opacity:1;" d="M 167.074219 359.804688 C 167.074219 359.804688 276.371094 229.425781 422.832031 349.886719 L 477.386719 252.375 L 556.40625 125.148438 C 497.089844 83.605469 451.59375 69.230469 451.59375 69.230469 L 451.59375 34.945313 C 183.660156 -59.019531 5.566406 95.585938 5.566406 95.585938 L 109.105469 262.285156 L 167.074219 359.804688 "/>
<path style=" stroke:none;fill-rule:evenodd;fill:rgb(0%,0%,0%);fill-opacity:1;" d="M 166.449219 357.480469 C 182.386719 340.203125 286.742188 237.4375 423.382813 347.867188 L 473.398438 258.476563 L 475.796875 260.660156 L 477.425781 260.660156 L 424.730469 354.863281 L 422.613281 353.117188 C 276.632813 233.046875 168.140625 362.472656 167.820313 362.84375 L 165.738281 365.269531 L 108.441406 268.871094 L 109.242188 268.871094 L 112.050781 265.960938 Z M 107.285156 266.933594 L 0.171875 94.355469 L 1.683594 93.074219 C 2.210938 92.625 182.316406 -63.722656 453.828125 31.5 L 455.382813 32.039063 L 455.382813 66.601563 C 492.953125 79.511719 529.707031 101.460938 561.898438 124.019531 L 481.046875 254.195313 L 479.5 256.964844 L 476.023438 253.78125 L 555.703125 125.285156 C 524.679688 103.738281 487.386719 81.710938 450.78125 69.914063 L 450.78125 35.304688 C 196.523438 -53.070313 23.828125 80.820313 6.171875 95.308594 L 110.582031 263.488281 L 107.285156 266.933594 "/>
<path style=" stroke:none;fill-rule:evenodd;fill:rgb(94.139099%,85.15625%,10.205078%);fill-opacity:1;" d="M 297.53125 291.488281 C 386.121094 291.488281 457.964844 363.335938 457.964844 451.925781 C 457.964844 540.515625 386.121094 612.359375 297.53125 612.359375 C 208.9375 612.359375 137.097656 540.515625 137.097656 451.925781 C 137.097656 363.335938 208.9375 291.488281 297.53125 291.488281 "/>
<path style=" stroke:none;fill-rule:evenodd;fill:rgb(0%,0%,0%);fill-opacity:1;" d="M 297.53125 288.421875 C 342.671875 288.421875 383.550781 306.730469 413.140625 336.316406 C 442.726563 365.910156 461.03125 406.78125 461.03125 451.925781 C 461.03125 497.070313 442.726563 537.9375 413.140625 567.535156 C 383.550781 597.121094 342.671875 615.425781 297.53125 615.425781 C 252.394531 615.425781 211.515625 597.121094 181.921875 567.535156 C 152.332031 537.9375 134.027344 497.070313 134.027344 451.925781 C 134.027344 406.78125 152.332031 365.910156 181.921875 336.316406 C 211.515625 306.726563 252.394531 288.421875 297.53125 288.421875 Z M 408.800781 340.652344 C 380.320313 312.175781 340.976563 294.558594 297.53125 294.558594 C 254.082031 294.558594 214.738281 312.175781 186.261719 340.65625 C 157.785156 369.132813 140.164063 408.476563 140.164063 451.925781 C 140.164063 495.371094 157.785156 534.714844 186.261719 563.195313 C 214.738281 591.671875 254.082031 609.289063 297.53125 609.289063 C 340.976563 609.289063 380.320313 591.671875 408.800781 563.195313 C 437.273438 534.714844 454.894531 495.371094 454.894531 451.925781 C 454.894531 408.476563 437.273438 369.132813 408.800781 340.652344 "/>
<path style=" stroke:none;fill-rule:evenodd;fill:rgb(0%,0%,0%);fill-opacity:1;" d="M 297.53125 302.347656 C 338.824219 302.347656 376.214844 319.09375 403.289063 346.167969 C 430.359375 373.230469 447.101563 410.628906 447.101563 451.925781 C 447.101563 493.222656 430.359375 530.617188 403.289063 557.683594 C 376.214844 584.753906 338.824219 601.496094 297.53125 601.496094 C 256.234375 601.496094 218.84375 584.753906 191.773438 557.683594 C 164.707031 530.617188 147.960938 493.222656 147.960938 451.925781 C 147.960938 410.628906 164.707031 373.234375 191.773438 346.167969 C 218.84375 319.09375 256.234375 302.347656 297.53125 302.347656 Z M 398.949219 350.507813 C 372.992188 324.546875 337.132813 308.488281 297.53125 308.488281 C 257.929688 308.488281 222.066406 324.546875 196.109375 350.507813 C 170.152344 376.464844 154.09375 412.324219 154.09375 451.925781 C 154.09375 491.523438 170.152344 527.386719 196.109375 553.34375 C 222.066406 579.300781 257.929688 595.359375 297.53125 595.359375 C 337.132813 595.359375 372.992188 579.300781 398.949219 553.34375 C 424.90625 527.386719 440.964844 491.523438 440.964844 451.925781 C 440.964844 412.324219 424.90625 376.464844 398.949219 350.507813 "/>
<path style=" stroke:none;fill-rule:evenodd;fill:rgb(83.984375%,10.984802%,21.972656%);fill-opacity:1;" d="M 174.902344 348.265625 C 174.90625 348.265625 276.679688 226.871094 413.042969 339.03125 L 463.839844 248.242188 L 537.40625 129.785156 C 482.183594 91.101563 439.820313 77.722656 439.820313 77.722656 L 439.820313 45.796875 C 190.351563 -41.691406 24.53125 102.253906 24.53125 102.253906 L 120.9375 257.472656 L 174.902344 348.265625 "/>
<path style=" stroke:none;fill-rule:evenodd;fill:rgb(0%,0%,0%);fill-opacity:1;" d="M 175.421875 343.136719 C 192.765625 324.726563 288.03125 234.878906 412.132813 334.394531 L 461.164063 246.753906 L 461.234375 246.621094 L 533.277344 130.628906 C 479.621094 93.496094 439 80.671875 438.886719 80.632813 L 436.746094 79.945313 L 436.746094 47.988281 C 205.734375 -31.996094 47.988281 87.152344 28.539063 102.90625 L 123.535156 255.855469 L 123.570313 255.917969 Z M 411.101563 341.390625 C 277.074219 231.15625 177.515625 349.917969 177.230469 350.253906 L 174.449219 353.488281 L 172.269531 349.824219 L 118.335938 259.09375 L 21.929688 103.871094 L 20.539063 101.628906 L 22.554688 99.914063 C 23.039063 99.503906 189.6875 -45.167969 440.828125 42.90625 L 442.890625 43.632813 L 442.890625 75.527344 C 452.15625 78.769531 490.753906 93.371094 539.15625 127.273438 L 541.535156 128.941406 L 540.011719 131.402344 L 466.4375 249.859375 L 415.714844 340.515625 L 413.921875 343.714844 L 411.101563 341.390625 "/>
<path style=" stroke:none;fill-rule:evenodd;fill:rgb(94.139099%,85.15625%,10.205078%);fill-opacity:1;" d="M 410.921875 349.066406 L 419.082031 334.375 L 428.058594 339.359375 L 419.902344 354.050781 L 410.921875 349.066406 "/>
<path style=" stroke:none;fill-rule:evenodd;fill:rgb(100%,100%,0%);fill-opacity:1;" d="M 468.636719 251.597656 C 526.914063 301.359375 560.996094 375.0625 560.996094 451.925781 C 560.996094 524.667969 531.503906 590.535156 483.820313 638.214844 C 436.140625 685.898438 370.269531 715.390625 297.53125 715.390625 C 224.789063 715.390625 158.917969 685.898438 111.238281 638.214844 C 63.554688 590.535156 34.0625 524.667969 34.0625 451.925781 C 34.0625 380.296875 63.417969 311.546875 114.996094 261.957031 L 114.996094 267.253906 L 120.550781 267.253906 C 70.328125 315.390625 41.734375 382.285156 41.734375 451.925781 C 41.734375 522.546875 70.371094 586.496094 116.660156 632.792969 C 162.957031 679.085938 226.910156 707.722656 297.53125 707.722656 C 368.15625 707.722656 432.101563 679.085938 478.398438 632.792969 C 524.691406 586.496094 553.324219 522.546875 553.324219 451.925781 C 553.324219 377.792969 520.695313 306.6875 464.742188 258.363281 L 468.636719 258.363281 L 468.636719 251.597656 "/>
<path style=" stroke:none;fill-rule:evenodd;fill:rgb(94.139099%,85.15625%,10.205078%);fill-opacity:1;" d="M 468.636719 251.597656 C 526.914063 301.359375 560.996094 375.0625 560.996094 451.925781 C 560.996094 524.667969 531.503906 590.535156 483.820313 638.214844 C 436.140625 685.898438 370.269531 715.390625 297.53125 715.390625 C 224.789063 715.390625 158.917969 685.898438 111.238281 638.214844 C 63.554688 590.535156 34.0625 524.667969 34.0625 451.925781 C 34.0625 380.296875 63.417969 311.546875 114.996094 261.957031 L 114.996094 267.253906 L 120.550781 267.253906 C 70.328125 315.390625 41.734375 382.285156 41.734375 451.925781 C 41.734375 522.546875 70.371094 586.496094 116.660156 632.792969 C 162.957031 679.085938 226.910156 707.722656 297.53125 707.722656 C 368.15625 707.722656 432.101563 679.085938 478.398438 632.792969 C 524.691406 586.496094 553.324219 522.546875 553.324219 451.925781 C 553.324219 377.792969 520.695313 306.6875 464.742188 258.363281 L 468.636719 258.363281 L 468.636719 251.597656 "/>
<path style=" stroke:none;fill-rule:evenodd;fill:rgb(100%,100%,100%);fill-opacity:1;" d="M 135.765625 371.039063 L 131.101563 368.242188 C 123.773438 379.171875 114.242188 381.09375 102.472656 374.023438 C 90.710938 366.953125 87.945313 357.640625 94.152344 346.042969 L 88.699219 342.757813 L 93.367188 334.992188 L 98.820313 338.269531 C 106.070313 327.425781 115.570313 325.53125 127.351563 332.609375 C 139.144531 339.695313 141.941406 348.984375 135.769531 360.46875 L 140.433594 363.269531 Z M 123.152344 363.460938 L 102.121094 350.828125 C 98.410156 356.992188 100.113281 362.207031 107.214844 366.472656 C 114.128906 370.632813 119.441406 369.632813 123.152344 363.460938 Z M 106.789063 343.058594 L 127.820313 355.695313 C 131.480469 349.59375 129.773438 344.410156 122.722656 340.175781 C 115.757813 335.992188 110.449219 336.964844 106.789063 343.058594 Z M 71.460938 384.074219 L 124.960938 396.421875 L 117.441406 428.988281 L 108.386719 426.898438 L 113.863281 403.167969 L 102.007813 400.429688 L 96.917969 422.476563 L 87.914063 420.394531 L 93 398.351563 L 78.441406 394.988281 L 72.777344 419.515625 L 63.761719 417.4375 Z M 72.214844 478.542969 L 72.28125 482.4375 L 51.03125 482.808594 L 50.90625 475.351563 L 62.855469 475.144531 L 62.363281 446.71875 L 50.410156 446.925781 L 50.277344 439.472656 L 71.527344 439.101563 L 71.59375 442.855469 C 75.449219 444.25 80.125 445.3125 85.570313 446.015625 C 91.027344 446.71875 99.152344 446.980469 109.941406 446.796875 L 117.28125 446.671875 L 117.820313 477.742188 Z M 108.40625 468.839844 L 108.171875 455.429688 C 91.976563 455.71875 79.824219 454.699219 71.753906 452.355469 L 72.050781 469.476563 Z M 67.75 506.695313 L 119.976563 489.730469 L 130.300781 521.507813 L 121.460938 524.386719 L 113.9375 501.222656 L 102.359375 504.984375 L 109.351563 526.5 L 100.5625 529.359375 L 93.570313 507.835938 L 79.355469 512.457031 L 87.132813 536.398438 L 78.332031 539.257813 Z M 89.171875 562.957031 L 135.734375 533.851563 L 143.476563 546.242188 C 146.367188 550.863281 148.019531 554.023438 148.460938 555.71875 C 149.164063 558.433594 148.792969 561.261719 147.371094 564.195313 C 145.9375 567.144531 143.375 569.769531 139.667969 572.089844 C 136.292969 574.195313 133.074219 575.316406 130.007813 575.46875 C 126.9375 575.621094 124.351563 575.03125 122.234375 573.691406 C 120.125 572.375 117.609375 569.378906 114.699219 564.71875 L 111.539063 559.664063 L 93.96875 570.636719 Z M 132.65625 546.464844 L 119.453125 554.71875 L 122.117188 558.976563 C 123.902344 561.839844 125.308594 563.664063 126.359375 564.441406 C 127.394531 565.210938 128.648438 565.597656 130.109375 565.59375 C 131.570313 565.597656 133.058594 565.125 134.585938 564.167969 C 136.125 563.207031 137.222656 562.050781 137.855469 560.722656 C 138.492188 559.371094 138.675781 558.097656 138.421875 556.867188 C 138.15625 555.652344 137.011719 553.441406 135.003906 550.21875 Z M 153.472656 640.316406 L 146.367188 633.453125 L 152.199219 621.742188 L 139.269531 609.253906 L 127.933594 615.65625 L 120.984375 608.945313 L 171.734375 581.621094 L 178.65625 588.308594 Z M 156.519531 613.066406 L 166.230469 594.105469 L 147.683594 604.535156 Z M 209.578125 661.199219 L 212.851563 662.941406 L 202.878906 681.703125 L 196.296875 678.207031 L 201.910156 667.648438 L 173.597656 652.59375 L 199.375 604.113281 L 207.382813 608.367188 L 185.964844 648.648438 L 201.609375 656.964844 L 223.023438 616.6875 L 230.996094 620.929688 Z M 232.074219 678.246094 L 244.421875 624.746094 L 252.859375 626.695313 L 244.625 662.34375 L 270.597656 630.785156 L 279.464844 632.835938 L 267.113281 686.335938 L 258.679688 684.390625 L 266.738281 649.496094 L 240.976563 680.300781 Z M 331.066406 685.160156 L 326.285156 630.460938 L 307.21875 632.128906 C 302.339844 632.558594 298.894531 633.355469 296.890625 634.519531 C 294.886719 635.6875 293.316406 637.542969 292.191406 640.078125 C 291.070313 642.625 290.644531 645.589844 290.945313 648.964844 C 291.316406 653.242188 292.632813 656.605469 294.914063 659.039063 C 297.207031 661.46875 300.269531 662.859375 304.097656 663.191406 C 302.28125 664.757813 300.808594 666.414063 299.691406 668.179688 C 298.566406 669.949219 297.09375 673.066406 295.277344 677.539063 L 290.769531 688.683594 L 301.550781 687.742188 L 307.074219 675.265625 C 309.058594 670.761719 310.425781 667.921875 311.1875 666.765625 C 311.929688 665.609375 312.765625 664.789063 313.679688 664.285156 C 314.582031 663.800781 316.078125 663.460938 318.171875 663.28125 L 320.039063 663.117188 L 322.035156 685.953125 Z M 319.273438 654.378906 L 312.554688 654.96875 C 308.453125 655.328125 305.824219 655.375 304.671875 655.117188 C 303.523438 654.859375 302.558594 654.214844 301.761719 653.175781 C 300.976563 652.144531 300.488281 650.707031 300.328125 648.898438 C 300.179688 647.15625 300.410156 645.722656 301.003906 644.605469 C 301.617188 643.488281 302.496094 642.679688 303.660156 642.179688 C 304.476563 641.828125 306.921875 641.484375 310.96875 641.132813 L 318.0625 640.507813 Z M 388.171875 607.867188 L 390.886719 612.570313 C 402.59375 606.566406 411.867188 609.507813 418.730469 621.402344 C 425.589844 633.277344 423.5 642.769531 412.4375 649.90625 L 415.625 655.417969 L 407.777344 659.953125 L 404.589844 654.4375 C 392.992188 660.410156 383.757813 657.453125 376.894531 645.554688 C 370.015625 633.644531 372.070313 624.15625 383.035156 617.105469 L 380.320313 612.394531 Z M 395.527344 620.609375 L 407.792969 641.855469 C 414.027344 638.257813 415.070313 632.875 410.921875 625.699219 C 406.890625 618.710938 401.761719 617.007813 395.527344 620.609375 Z M 399.945313 646.386719 L 387.679688 625.140625 C 381.519531 628.695313 380.496094 634.054688 384.609375 641.1875 C 388.675781 648.214844 393.785156 649.941406 399.945313 646.386719 Z M 450.898438 610.066406 L 411.621094 593.222656 L 418.949219 586.144531 L 446.269531 599.398438 L 432.984375 572.589844 L 439.753906 566.054688 L 457.828125 606.613281 C 460.011719 611.566406 461.199219 615.410156 461.386719 618.125 C 461.570313 620.820313 460.773438 623.03125 459.019531 624.726563 C 457.324219 626.363281 455.65625 627.652344 454.019531 628.609375 L 448.324219 622.707031 C 449.46875 621.738281 450.324219 620.988281 450.882813 620.441406 C 452.460938 618.925781 453.246094 617.519531 453.242188 616.242188 C 453.238281 614.953125 452.464844 612.894531 450.898438 610.066406 Z M 496.625 578.058594 L 457.941406 553.886719 L 450.851563 565.21875 L 442.972656 560.296875 L 461.925781 529.957031 L 469.8125 534.882813 L 462.746094 546.191406 L 501.429688 570.367188 Z M 518.550781 536.101563 L 465.765625 520.964844 L 475.046875 488.59375 L 483.945313 491.148438 L 477.164063 514.804688 L 489.253906 518.273438 L 492.808594 505.882813 C 494.148438 501.203125 496.667969 497.949219 500.339844 496.128906 C 504.019531 494.292969 508.261719 494.0625 513.066406 495.4375 C 517.242188 496.636719 520.605469 498.84375 523.140625 502.011719 C 525.679688 505.203125 526.171875 509.53125 524.601563 515.003906 Z M 498.1875 520.832031 L 512.113281 524.828125 L 514.757813 515.609375 C 515.445313 513.210938 515.78125 511.4375 515.769531 510.273438 C 515.757813 509.113281 515.257813 507.960938 514.324219 506.8125 C 513.378906 505.679688 512.125 504.882813 510.566406 504.433594 C 505.835938 503.078125 502.628906 505.347656 500.933594 511.257813 Z M 505.457031 476.058594 C 498.914063 475.945313 493.550781 474.894531 489.351563 472.878906 C 485.15625 470.871094 482.039063 468.28125 480.027344 465.132813 C 478.007813 461.980469 477.042969 458.175781 477.113281 453.730469 C 477.230469 447.289063 479.773438 442.085938 484.765625 438.105469 C 489.757813 434.140625 496.796875 432.230469 505.890625 432.390625 C 515.066406 432.546875 522.210938 434.824219 527.304688 439.210938 C 531.808594 443.058594 533.996094 448.210938 533.882813 454.683594 C 533.769531 461.199219 531.421875 466.292969 526.84375 469.992188 C 521.601563 474.199219 514.46875 476.214844 505.457031 476.058594 Z M 505.253906 466.695313 C 511.570313 466.808594 516.3125 465.6875 519.511719 463.351563 C 522.714844 461.003906 524.351563 458.066406 524.414063 454.515625 C 524.476563 450.949219 522.953125 447.96875 519.859375 445.5625 C 516.773438 443.152344 511.988281 441.90625 505.492188 441.792969 C 499.128906 441.683594 494.402344 442.738281 491.308594 444.976563 C 488.230469 447.191406 486.65625 450.15625 486.589844 453.855469 C 486.523438 457.546875 488.007813 460.589844 491.035156 462.953125 C 494.070313 465.335938 498.804688 466.589844 505.253906 466.695313 Z M 522.707031 382.832031 L 479.050781 396.175781 L 482.992188 409.074219 L 505.449219 402.210938 C 511.300781 400.425781 515.679688 399.273438 518.597656 398.753906 C 521.496094 398.242188 523.886719 398.445313 525.765625 399.339844 C 527.632813 400.246094 529.023438 402.222656 529.953125 405.253906 C 530.222656 406.132813 530.671875 407.992188 531.269531 410.839844 L 522.996094 413.371094 L 522.421875 411.472656 C 521.84375 409.605469 521.167969 408.476563 520.390625 408.070313 C 519.597656 407.675781 517.992188 407.855469 515.589844 408.589844 L 476.792969 420.449219 L 467.550781 390.214844 L 520.058594 374.160156 Z M 489.46875 312.859375 L 494.40625 321.421875 L 485.570313 331.066406 L 494.558594 346.632813 L 507.21875 343.601563 L 512.054688 351.972656 L 455.734375 364.25 L 450.925781 355.910156 Z M 479.027344 338.210938 L 464.472656 353.757813 L 485.167969 348.851563 Z M 479.027344 338.210938 "/>
<path style=" stroke:none;fill-rule:evenodd;fill:rgb(94.139099%,85.15625%,10.205078%);fill-opacity:1;" d="M 177.863281 359.273438 L 170.921875 347.53125 L 162.71875 351.160156 L 169.65625 362.894531 L 177.863281 359.273438 "/>
<path style=" stroke:none;fill-rule:nonzero;fill:rgb(0%,0%,0%);fill-opacity:1;" d="M 297.53125 302.351563 C 338.824219 302.351563 376.21875 319.097656 403.289063 346.167969 C 430.355469 373.234375 447.101563 410.628906 447.101563 451.925781 C 447.101563 493.222656 430.355469 530.613281 403.289063 557.683594 C 376.21875 584.753906 338.824219 601.496094 297.53125 601.496094 C 256.234375 601.496094 218.84375 584.753906 191.773438 557.683594 C 164.703125 530.613281 147.957031 493.222656 147.957031 451.925781 C 147.957031 410.628906 164.703125 373.234375 191.773438 346.167969 C 218.84375 319.097656 256.234375 302.351563 297.53125 302.351563 Z M 398.949219 350.503906 C 372.992188 324.546875 337.132813 308.488281 297.53125 308.488281 C 257.929688 308.488281 222.070313 324.546875 196.109375 350.503906 C 170.152344 376.464844 154.09375 412.324219 154.09375 451.925781 C 154.09375 491.527344 170.152344 527.386719 196.109375 553.347656 C 222.070313 579.304688 257.929688 595.363281 297.53125 595.363281 C 337.132813 595.363281 372.992188 579.304688 398.949219 553.347656 C 424.90625 527.386719 440.964844 491.527344 440.964844 451.925781 C 440.964844 412.324219 424.90625 376.464844 398.949219 350.503906 "/>
<path style=" stroke:none;fill-rule:evenodd;fill:rgb(94.139099%,85.15625%,10.205078%);fill-opacity:1;" d="M 131.617188 109.710938 C 143.511719 117.328125 180.089844 124.136719 170.75 168.652344 C 178.164063 174.148438 185.703125 176.433594 193.117188 181.929688 C 195.027344 186.074219 193.9375 189.242188 187.5625 189.5625 C 180.546875 185.894531 172.835938 181.511719 165.820313 177.84375 C 138.84375 202.296875 111.367188 183.875 104.480469 181.453125 C 101.613281 184.320313 100.0625 187.410156 97.195313 190.277344 C 94.164063 191.789063 92.410156 190.757813 91.933594 187.171875 C 94.558594 182.546875 97.796875 178.585938 103.449219 173.304688 C 129.988281 185.5625 147.878906 185.503906 154.808594 169 C 145.960938 163.660156 137.117188 158.324219 128.269531 152.984375 C 126.039063 156.253906 123.808594 159.519531 121.578125 162.785156 C 117.832031 160.238281 114.085938 157.683594 110.34375 155.132813 C 113.929688 148.042969 117.515625 140.949219 121.101563 133.859375 C 126.996094 133.222656 132.894531 132.585938 138.789063 131.945313 C 136.320313 136.808594 133.847656 141.671875 131.378906 146.527344 C 141.179688 151.46875 150.027344 156.890625 159.828125 161.828125 C 173.585938 143.601563 146.738281 118.273438 131.617188 109.710938 "/>
<path style=" stroke:none;fill-rule:nonzero;fill:rgb(94.139099%,85.15625%,10.205078%);fill-opacity:1;" d="M 65.703125 86.363281 L 81.835938 98.925781 L 99.496094 88.753906 L 92.457031 108.054688 L 107.535156 121.183594 L 86.984375 120.554688 L 78.476563 139.273438 L 73.351563 119.945313 L 52.738281 117.859375 L 69.664063 106.5 L 65.703125 86.363281 "/>
<path style=" stroke:none;fill-rule:evenodd;fill:rgb(94.139099%,85.15625%,10.205078%);fill-opacity:1;" d="M 206.375 256.738281 L 216.796875 255.484375 L 217.035156 256.902344 C 217.824219 261.617188 218.066406 265.996094 217.757813 270.042969 C 217.445313 274.144531 216.574219 277.910156 215.148438 281.34375 C 213.71875 284.789063 211.800781 287.765625 209.394531 290.269531 C 206.992188 292.769531 204.109375 294.785156 200.757813 296.320313 C 197.355469 297.878906 194.089844 298.851563 190.953125 299.238281 C 187.785156 299.632813 184.761719 299.429688 181.878906 298.632813 L 181.871094 298.632813 C 179.007813 297.835938 176.246094 296.519531 173.585938 294.675781 C 170.945313 292.847656 168.414063 290.507813 165.996094 287.652344 C 163.589844 284.820313 161.425781 281.746094 159.5 278.429688 C 157.578125 275.128906 155.890625 271.570313 154.433594 267.757813 C 152.863281 263.648438 151.691406 259.640625 150.929688 255.746094 C 150.160156 251.84375 149.804688 248.039063 149.855469 244.335938 C 149.910156 240.597656 150.382813 237.113281 151.273438 233.882813 C 152.175781 230.628906 153.503906 227.617188 155.253906 224.84375 C 157 222.085938 159.011719 219.699219 161.285156 217.683594 C 163.566406 215.660156 166.128906 214.003906 168.953125 212.710938 C 172.152344 211.246094 175.3125 210.40625 178.425781 210.203125 C 181.550781 209.996094 184.617188 210.429688 187.621094 211.507813 C 190.613281 212.570313 193.441406 214.226563 196.113281 216.472656 C 198.765625 218.703125 201.238281 221.496094 203.539063 224.859375 L 204.363281 226.066406 L 195.09375 234.011719 L 194.222656 232.800781 C 192.515625 230.425781 190.796875 228.484375 189.070313 226.980469 C 187.375 225.503906 185.675781 224.441406 183.972656 223.796875 L 183.972656 223.800781 C 182.285156 223.164063 180.558594 222.898438 178.792969 223.003906 C 177.007813 223.113281 175.160156 223.601563 173.257813 224.472656 C 171.085938 225.46875 169.21875 226.714844 167.65625 228.214844 C 166.113281 229.699219 164.855469 231.441406 163.886719 233.441406 C 162.910156 235.464844 162.242188 237.628906 161.886719 239.925781 C 161.53125 242.234375 161.484375 244.695313 161.757813 247.296875 C 161.902344 248.613281 162.089844 249.910156 162.308594 251.183594 C 162.523438 252.445313 162.789063 253.746094 163.101563 255.09375 L 163.097656 255.09375 C 163.40625 256.390625 163.753906 257.671875 164.140625 258.933594 C 164.523438 260.179688 164.949219 261.421875 165.425781 262.671875 C 166.65625 265.886719 167.992188 268.8125 169.425781 271.441406 C 170.859375 274.0625 172.394531 276.402344 174.03125 278.460938 C 175.632813 280.464844 177.320313 282.089844 179.097656 283.335938 C 180.847656 284.5625 182.683594 285.417969 184.59375 285.902344 C 186.523438 286.378906 188.410156 286.535156 190.257813 286.375 C 192.089844 286.214844 193.886719 285.734375 195.640625 284.929688 C 197.730469 283.972656 199.511719 282.710938 200.988281 281.148438 C 202.460938 279.585938 203.640625 277.703125 204.523438 275.511719 C 205.402344 273.3125 205.894531 270.820313 206.007813 268.035156 C 206.121094 265.199219 205.832031 262.054688 205.144531 258.605469 L 204.8125 256.929688 Z M 276.855469 237.546875 L 287.300781 238.59375 L 287.273438 240.03125 C 287.1875 244.816406 286.621094 249.160156 285.582031 253.066406 C 284.527344 257.019531 282.988281 260.519531 280.964844 263.566406 C 278.9375 266.632813 276.511719 269.132813 273.695313 271.0625 C 270.886719 272.984375 267.699219 274.332031 264.132813 275.101563 C 260.511719 275.886719 257.136719 276.125 254 275.820313 C 250.832031 275.515625 247.902344 274.652344 245.210938 273.234375 L 245.203125 273.234375 C 242.539063 271.824219 240.070313 269.929688 237.800781 267.546875 C 235.554688 265.179688 233.503906 262.335938 231.648438 259.007813 C 229.8125 255.707031 228.253906 252.222656 226.96875 248.550781 C 225.691406 244.890625 224.683594 241.035156 223.953125 236.988281 C 223.164063 232.632813 222.75 228.453125 222.714844 224.449219 C 222.675781 220.433594 223.015625 216.628906 223.738281 213.035156 C 224.46875 209.402344 225.570313 206.089844 227.039063 203.109375 C 228.519531 200.109375 230.367188 197.445313 232.585938 195.117188 C 234.796875 192.796875 237.203125 190.898438 239.804688 189.421875 C 242.414063 187.933594 245.222656 186.867188 248.226563 186.21875 C 251.625 185.484375 254.871094 185.355469 257.964844 185.835938 C 261.058594 186.316406 263.984375 187.410156 266.734375 189.125 C 269.480469 190.828125 271.953125 193.066406 274.15625 195.847656 C 276.339844 198.597656 278.25 201.878906 279.894531 205.683594 L 280.484375 207.058594 L 269.957031 212.808594 L 269.320313 211.425781 C 268.085938 208.742188 266.757813 206.464844 265.332031 204.601563 C 263.945313 202.785156 262.472656 201.378906 260.914063 200.367188 C 259.386719 199.382813 257.742188 198.746094 255.988281 198.460938 C 254.214844 198.179688 252.316406 198.253906 250.296875 198.691406 C 247.984375 199.191406 245.929688 200.003906 244.128906 201.128906 C 242.335938 202.253906 240.78125 203.6875 239.472656 205.429688 C 238.148438 207.195313 237.101563 209.171875 236.332031 211.347656 C 235.5625 213.523438 235.070313 215.921875 234.863281 218.539063 C 234.765625 219.886719 234.707031 221.191406 234.691406 222.460938 C 234.671875 223.765625 234.695313 225.101563 234.753906 226.464844 C 234.820313 227.773438 234.925781 229.105469 235.078125 230.464844 C 235.226563 231.789063 235.417969 233.105469 235.652344 234.402344 C 236.273438 237.828125 237.046875 240.988281 237.972656 243.878906 C 238.894531 246.753906 239.976563 249.382813 241.207031 251.757813 C 242.410156 254.074219 243.765625 256.035156 245.277344 257.640625 C 246.769531 259.226563 248.40625 260.46875 250.191406 261.359375 C 251.996094 262.246094 253.816406 262.816406 255.648438 263.058594 C 257.480469 263.300781 259.328125 263.222656 261.195313 262.820313 C 263.421875 262.335938 265.402344 261.492188 267.128906 260.28125 C 268.855469 259.074219 270.351563 257.492188 271.617188 255.539063 C 272.878906 253.574219 273.816406 251.238281 274.433594 248.535156 L 274.433594 248.53125 C 275.066406 245.761719 275.359375 242.617188 275.316406 239.105469 L 275.296875 237.390625 Z M 353.0625 245.8125 L 362.542969 250.714844 L 362.066406 252.058594 C 360.484375 256.523438 358.59375 260.394531 356.394531 263.664063 C 354.167969 266.976563 351.625 269.683594 348.761719 271.792969 L 348.765625 271.796875 C 345.898438 273.914063 342.839844 275.351563 339.589844 276.105469 C 336.355469 276.855469 332.9375 276.921875 329.34375 276.308594 C 325.699219 275.683594 322.449219 274.636719 319.597656 273.175781 C 316.703125 271.691406 314.222656 269.78125 312.144531 267.449219 C 310.085938 265.125 308.363281 262.417969 306.976563 259.320313 C 305.601563 256.25 304.566406 252.808594 303.871094 248.992188 C 303.183594 245.230469 302.8125 241.371094 302.757813 237.410156 C 302.703125 233.492188 302.964844 229.496094 303.546875 225.425781 C 304.179688 221.007813 305.097656 216.925781 306.304688 213.183594 C 307.523438 209.414063 309.039063 205.964844 310.859375 202.839844 C 312.683594 199.699219 314.753906 197.003906 317.070313 194.753906 C 319.402344 192.488281 321.976563 190.679688 324.78125 189.332031 L 324.785156 189.332031 C 327.578125 187.988281 330.433594 187.109375 333.351563 186.695313 C 336.265625 186.28125 339.234375 186.335938 342.253906 186.851563 C 345.683594 187.4375 348.773438 188.535156 351.519531 190.144531 C 354.285156 191.765625 356.691406 193.894531 358.738281 196.53125 L 358.734375 196.535156 C 360.785156 199.171875 362.40625 202.203125 363.601563 205.628906 C 364.78125 209.019531 365.550781 212.816406 365.898438 217.027344 L 366.023438 218.53125 L 354.328125 219.984375 L 354.167969 218.445313 C 353.847656 215.4375 353.3125 212.800781 352.566406 210.53125 C 351.832031 208.3125 350.890625 206.4375 349.746094 204.902344 C 348.617188 203.402344 347.273438 202.1875 345.714844 201.265625 C 344.132813 200.328125 342.328125 199.683594 340.300781 199.335938 C 337.980469 198.941406 335.792969 198.933594 333.734375 199.316406 C 331.699219 199.695313 329.796875 200.460938 328.015625 201.605469 C 326.214844 202.773438 324.609375 204.234375 323.210938 205.984375 C 321.800781 207.746094 320.585938 209.8125 319.574219 212.179688 C 319.09375 213.328125 318.632813 214.539063 318.1875 215.8125 C 317.753906 217.058594 317.355469 218.316406 316.988281 219.597656 C 316.632813 220.859375 316.316406 222.148438 316.039063 223.464844 C 315.757813 224.785156 315.527344 226.089844 315.34375 227.378906 C 314.851563 230.820313 314.589844 234.078125 314.554688 237.152344 C 314.519531 240.195313 314.710938 243.070313 315.121094 245.773438 C 315.527344 248.402344 316.1875 250.753906 317.101563 252.828125 C 318.003906 254.875 319.152344 256.65625 320.550781 258.160156 C 321.964844 259.675781 323.5 260.894531 325.148438 261.8125 C 326.796875 262.730469 328.554688 263.351563 330.421875 263.671875 C 332.664063 264.054688 334.789063 264.003906 336.796875 263.515625 C 338.800781 263.027344 340.703125 262.105469 342.503906 260.746094 L 342.5 260.742188 C 344.300781 259.371094 345.914063 257.527344 347.34375 255.222656 C 348.804688 252.855469 350.066406 250.015625 351.125 246.703125 L 351.644531 245.078125 Z M 366.105469 281.964844 L 395.324219 201.929688 L 419.914063 212.683594 L 419.964844 212.703125 L 425.320313 215.300781 L 425.316406 215.304688 C 425.675781 215.460938 426.019531 215.621094 426.347656 215.789063 C 426.710938 215.976563 427.046875 216.164063 427.355469 216.355469 C 427.675781 216.554688 428 216.773438 428.324219 217.007813 C 428.648438 217.242188 428.976563 217.496094 429.308594 217.769531 C 430.769531 218.800781 432.054688 219.929688 433.152344 221.152344 C 434.277344 222.402344 435.207031 223.75 435.945313 225.191406 C 436.695313 226.632813 437.269531 228.234375 437.664063 229.984375 C 438.058594 231.703125 438.277344 233.574219 438.328125 235.597656 C 438.386719 237.621094 438.238281 239.660156 437.886719 241.707031 C 437.535156 243.742188 436.980469 245.796875 436.226563 247.871094 C 434.945313 251.371094 433.328125 254.410156 431.378906 256.988281 C 429.40625 259.585938 427.089844 261.726563 424.421875 263.410156 C 421.671875 265.144531 418.441406 265.921875 414.734375 265.746094 C 411.140625 265.574219 407.085938 264.503906 402.574219 262.53125 L 388.0625 256.183594 L 376.402344 288.128906 L 365.585938 283.394531 Z M 392.476563 244.09375 L 407.082031 250.480469 C 409.574219 251.570313 411.804688 252.207031 413.769531 252.390625 C 415.632813 252.558594 417.234375 252.316406 418.574219 251.660156 C 419.941406 250.984375 421.160156 249.976563 422.222656 248.628906 C 423.316406 247.242188 424.246094 245.492188 425.019531 243.378906 C 425.574219 241.859375 425.941406 240.382813 426.121094 238.960938 C 426.296875 237.566406 426.289063 236.21875 426.101563 234.921875 C 425.914063 233.65625 425.570313 232.519531 425.066406 231.519531 C 424.574219 230.539063 423.921875 229.6875 423.109375 228.960938 C 422.488281 228.460938 421.617188 227.898438 420.492188 227.28125 C 419.308594 226.632813 417.859375 225.933594 416.140625 225.183594 L 401.6875 218.863281 L 392.476563 244.09375 "/>
<path style=" stroke:none;fill-rule:evenodd;fill:rgb(0%,0%,0%);fill-opacity:1;" d="M 279.601563 303.429688 C 320.601563 298.480469 359.726563 310.625 389.851563 334.257813 C 419.972656 357.878906 441.074219 393 446.027344 434 C 450.976563 474.996094 438.835938 514.132813 415.203125 544.246094 C 391.570313 574.367188 356.457031 595.472656 315.460938 600.421875 C 274.460938 605.371094 235.332031 593.230469 205.210938 569.597656 C 175.09375 545.972656 153.984375 510.855469 149.035156 469.855469 C 144.085938 428.855469 156.230469 389.722656 179.855469 359.609375 C 203.488281 329.488281 238.601563 308.378906 279.601563 303.429688 Z M 386.0625 339.082031 C 357.183594 316.425781 319.652344 304.78125 280.339844 309.527344 C 241.019531 314.273438 207.339844 334.515625 184.683594 363.394531 C 162.023438 392.277344 150.378906 429.804688 155.125 469.121094 C 159.871094 508.433594 180.113281 542.113281 208.996094 564.773438 C 237.878906 587.433594 275.40625 599.074219 314.722656 594.328125 C 354.039063 589.582031 387.71875 569.339844 410.378906 540.460938 C 433.035156 511.578125 444.679688 474.050781 439.933594 434.734375 C 435.1875 395.421875 414.945313 361.742188 386.0625 339.082031 "/>
<path style=" stroke:none;fill-rule:evenodd;fill:rgb(100%,100%,100%);fill-opacity:1;" d="M 279.96875 306.480469 C 360.285156 296.78125 433.285156 354.050781 442.980469 434.367188 C 452.679688 514.683594 395.40625 587.679688 315.089844 597.375 C 234.773438 607.074219 161.777344 549.804688 152.078125 469.488281 C 142.382813 389.175781 199.652344 316.175781 279.96875 306.480469 "/>
<path style=" stroke:none;fill-rule:nonzero;fill:rgb(0%,0%,0%);fill-opacity:1;" d="M 279.601563 303.433594 C 320.601563 298.484375 359.730469 310.625 389.851563 334.253906 C 419.96875 357.886719 441.078125 393.003906 446.027344 434 C 450.976563 474.996094 438.835938 514.128906 415.203125 544.246094 C 391.574219 574.367188 356.457031 595.472656 315.460938 600.421875 C 274.460938 605.371094 235.328125 593.230469 205.210938 569.601563 C 175.089844 545.972656 153.984375 510.855469 149.035156 469.855469 C 144.082031 428.859375 156.226563 389.726563 179.855469 359.609375 C 203.484375 329.488281 238.601563 308.382813 279.601563 303.433594 Z M 386.0625 339.082031 C 357.179688 316.421875 319.65625 304.777344 280.339844 309.527344 C 241.019531 314.273438 207.34375 334.511719 184.683594 363.394531 C 162.023438 392.277344 150.378906 429.804688 155.125 469.121094 C 159.871094 508.4375 180.113281 542.113281 208.996094 564.773438 C 237.878906 587.433594 275.40625 599.078125 314.722656 594.328125 C 354.042969 589.582031 387.71875 569.34375 410.378906 540.460938 C 433.039063 511.578125 444.683594 474.054688 439.933594 434.734375 C 435.1875 395.417969 414.945313 361.742188 386.0625 339.082031 "/>
<path style=" stroke:none;fill-rule:evenodd;fill:rgb(80.076599%,63.084412%,27.830505%);fill-opacity:1;" d="M 358.640625 318.683594 C 285.246094 285.023438 197.941406 317.429688 164.28125 390.816406 C 130.625 464.203125 163.023438 551.519531 236.414063 585.175781 C 309.800781 618.832031 397.121094 586.425781 430.78125 513.039063 C 464.441406 439.652344 432.03125 352.34375 358.640625 318.683594 "/>
<path style="fill:none;stroke-width:63.0799;stroke-linecap:butt;stroke-linejoin:miter;stroke:rgb(0%,0%,0%);stroke-opacity:1;stroke-miterlimit:10;" d="M -4499.513277 3976.909244 C -3733.674582 4446.617768 -2726.074962 4205.121713 -2256.378164 3439.307162 C -1786.729725 2673.530551 -2028.162028 1665.829027 -2793.957574 1196.125712 C -3559.71518 726.470757 -4567.492606 967.989124 -5037.184195 1733.760525 C -5506.875783 2499.531926 -5265.308823 3507.205929 -4499.513277 3976.909244 Z M -4499.513277 3976.909244 " transform="matrix(-0.0892282,0.0107727,-0.0107729,-0.0892262,0,722)"/>
<path style="fill:none;stroke-width:63.0799;stroke-linecap:butt;stroke-linejoin:miter;stroke:rgb(0%,0%,0%);stroke-opacity:1;stroke-miterlimit:10;" d="M -2185.753156 3317.021858 C -2877.968785 3827.881126 -3495.019471 3778.904949 -4221.108313 3191.720358 C -4258.320823 2900.561436 -4038.783149 2599.686536 -3639.121237 2590.89533 " transform="matrix(-0.0892282,0.0107727,-0.0107729,-0.0892262,0,722)"/>
<path style="fill:none;stroke-width:63.0799;stroke-linecap:butt;stroke-linejoin:miter;stroke:rgb(0%,0%,0%);stroke-opacity:1;stroke-miterlimit:10;" d="M -4220.426755 3189.701245 C -4542.860845 3263.372311 -4760.837349 3572.709963 -4610.182185 3901.468785 " transform="matrix(-0.0892282,0.0107727,-0.0107729,-0.0892262,0,722)"/>
<path style="fill:none;stroke-width:63.0799;stroke-linecap:butt;stroke-linejoin:miter;stroke:rgb(0%,0%,0%);stroke-opacity:1;stroke-miterlimit:10;" d="M -4999.415741 3488.480825 C -5095.75096 2633.662785 -4744.771015 2123.763875 -3873.254486 1788.523832 C -3602.553418 1901.848101 -3451.751503 2242.44502 -3644.012846 2592.975273 " transform="matrix(-0.0892282,0.0107727,-0.0107729,-0.0892262,0,722)"/>
<path style="fill:none;stroke-width:63.0799;stroke-linecap:butt;stroke-linejoin:miter;stroke:rgb(0%,0%,0%);stroke-opacity:1;stroke-miterlimit:10;" d="M -3871.910973 1790.086975 C -3774.390351 1474.042589 -3933.344408 1130.622698 -4293.384932 1096.60961 " transform="matrix(-0.0892282,0.0107727,-0.0107729,-0.0892262,0,722)"/>
<path style="fill:none;stroke-width:63.0799;stroke-linecap:butt;stroke-linejoin:miter;stroke:rgb(0%,0%,0%);stroke-opacity:1;stroke-miterlimit:10;" d="M -3746.234498 961.635662 C -2957.726799 1305.589224 -2691.574969 1864.517881 -2837.040597 2786.894155 C -3070.610243 2964.675239 -3440.868743 2925.006789 -3648.350401 2583.214172 " transform="matrix(-0.0892282,0.0107727,-0.0107729,-0.0892262,0,722)"/>
<path style="fill:none;stroke-width:63.0799;stroke-linecap:butt;stroke-linejoin:miter;stroke:rgb(0%,0%,0%);stroke-opacity:1;stroke-miterlimit:10;" d="M -2839.151966 2787.339706 C -2614.162618 3029.809746 -2237.313146 3063.838415 -2027.831068 2769.0168 " transform="matrix(-0.0892282,0.0107727,-0.0107729,-0.0892262,0,722)"/>
</g>
</svg>
